<svg width="531" height="559" viewBox="0 0 531 559" fill="none" xmlns="http://www.w3.org/2000/svg">
<path d="M400.688 424.39C472.369 350.047 472.369 229.513 400.688 155.17C329.007 80.827 212.789 80.827 141.108 155.17C69.4264 229.513 69.4264 350.047 141.108 424.39C212.789 498.733 329.007 498.733 400.688 424.39Z" fill="#256BFD"/>
<path opacity="0.4" d="M400.688 424.39C472.369 350.047 472.369 229.513 400.688 155.17C329.007 80.827 212.789 80.827 141.108 155.17C69.4264 229.513 69.4264 350.047 141.108 424.39C212.789 498.733 329.007 498.733 400.688 424.39Z" fill="black"/>
<path d="M389.518 404.375C461.199 330.032 461.199 209.498 389.518 135.155C317.836 60.8118 201.618 60.8118 129.937 135.155C58.256 209.498 58.256 330.032 129.937 404.375C201.618 478.718 317.836 478.718 389.518 404.375Z" fill="#7D5DF6"/>
<path opacity="0.2" d="M271.902 408.675C348.783 400.927 405.202 331.615 397.918 253.862C390.633 176.109 322.403 119.359 245.522 127.107C168.641 134.855 112.221 204.167 119.506 281.92C126.791 359.673 195.021 416.423 271.902 408.675Z" fill="white"/>
<path d="M271.875 408.066C235.663 411.714 199.508 400.573 171.092 377.01C142.675 353.448 124.238 319.321 119.699 281.883C119.699 283.261 119.847 284.639 119.973 286.016C123.561 324.296 141.663 359.53 170.299 383.967C198.934 408.404 235.756 420.042 272.665 416.321C309.575 412.601 343.547 393.826 367.109 364.127C390.671 334.428 401.892 296.238 398.305 257.959C398.157 256.581 397.967 255.225 397.82 253.848C400.312 291.498 388.549 328.673 365.031 357.471C341.512 386.269 308.093 404.42 271.875 408.066Z" fill="#FAFAFA"/>
<path opacity="0.3" d="M245.58 127.599C281.793 123.957 317.948 135.099 346.367 158.66C374.785 182.221 393.228 216.345 397.777 253.782C397.672 252.404 397.608 251.048 397.482 249.649C393.894 211.369 375.792 176.135 347.156 151.699C318.521 127.262 281.699 115.623 244.79 119.344C207.881 123.065 173.908 141.84 150.346 171.538C126.785 201.237 115.563 239.427 119.15 277.707C119.298 279.106 119.488 280.462 119.656 281.818C117.164 244.17 128.924 206.999 152.438 178.201C175.952 149.404 209.366 131.251 245.58 127.599Z" fill="black"/>
<path d="M259.087 188.055L356.307 293.429V349.999H310.937V313.765L240.325 237.229H225.657V349.999H180.288V188.055H259.087Z" fill="white"/>
</svg>
