<?xml version="1.0" encoding="utf-8"?>
<!-- Generator: Adobe Illustrator 23.1.0, SVG Export Plug-In . SVG Version: 6.00 Build 0)  -->
<svg version="1.1" id="Layer_1" xmlns="http://www.w3.org/2000/svg" xmlns:xlink="http://www.w3.org/1999/xlink" x="0px" y="0px"
	 viewBox="0 0 654.3 816.5" style="enable-background:new 0 0 654.3 816.5;" xml:space="preserve">
<style type="text/css">
	.st0{fill:#C6AAE9;}
	.st1{fill:#FFFFFF;}
	.st2{fill:#F9EAFF;}
	.st3{fill:none;stroke:#B0C3FA;stroke-width:4.78;stroke-linecap:round;stroke-linejoin:round;}
	.st4{fill:#ECC953;}
	.st5{fill:none;stroke:#1B3C87;stroke-width:4.78;stroke-linecap:round;stroke-linejoin:round;}
	.st6{fill:#F3D6FF;}
	.st7{fill:#E5B0FA;}
	.st8{fill:#FB5D64;}
	.st9{fill:none;stroke:#E5B0FA;stroke-width:4.78;stroke-linecap:round;stroke-linejoin:round;}
</style>
<title>drawkit-grape-pack-illustration-14</title>
<path class="st0" d="M562.7,172.9c52.5,33.7,76.4,111.9,82.6,187.5s-4.9,148.3-32,227.6S543.4,753,476,782.3
	c-67.6,29.5-159.7,2.4-228.9-42.3C178,695.3,131.6,632.8,88.3,565S4.4,424.2,0.4,341.9C-3.9,259.6,28.3,168,92.2,136.3
	c64-31.7,159.7-3.2,248.2,5.4S510.2,139.2,562.7,172.9z"/>
<path class="st1" d="M400,816.5c28.1-70.8,83-107.2,86-194.2c0.1-6.4-106-74.9-155.5-73.7S216.2,816.5,216.2,816.5H400z"/>
<rect x="184" y="51.6" class="st2" width="317.5" height="565.7"/>
<rect x="215.6" y="299.3" class="st1" width="254.2" height="98.4"/>
<line class="st3" x1="319.1" y1="327.7" x2="435.3" y2="327.7"/>
<line class="st3" x1="319.1" y1="358.1" x2="366.3" y2="358.1"/>
<circle class="st4" cx="266.3" cy="348.5" r="26.9"/>
<path class="st5" d="M439.2,733.5c21.1-32.8,40.1-66.1,41.8-116.2"/>
<path class="st5" d="M395,811.5c6-14.7,13.2-28.9,21.5-42.4"/>
<rect x="215.6" y="154.8" class="st1" width="254.2" height="98.4"/>
<rect x="184" y="51.6" class="st6" width="317.5" height="58.3"/>
<rect x="184" y="559.1" class="st6" width="317.5" height="58.3"/>
<line class="st5" x1="319.1" y1="80.7" x2="366.3" y2="80.7"/>
<circle class="st7" cx="342.7" cy="588.2" r="14"/>
<path class="st1" d="M137.5,816.5c15-57,18-275,0-325c26-19,133-100,149-113c15,10,8,93-41,129v25c26,0,65,87,43,179
	c-12.7,40.3,26.6,105,26.6,105H137.5z"/>
<path class="st5" d="M265.2,548.5c19.1,31.3,33.7,93.4,18.3,158"/>
<path class="st5" d="M266.3,385.4c7.1-5.5,12.5-9.7,15.2-11.9c15,10,8,93-41,129v18.2"/>
<path class="st5" d="M147.5,475.4c22.6-16.8,59.3-44.6,89-67.2"/>
<path class="st5" d="M132.5,811.5c11.8-44.9,16.2-189.7,8.7-273.6"/>
<line class="st3" x1="413.3" y1="183.2" x2="435.3" y2="183.2"/>
<line class="st3" x1="319.1" y1="183.2" x2="391.3" y2="183.2"/>
<line class="st3" x1="319.1" y1="213.6" x2="366.3" y2="213.6"/>
<circle class="st8" cx="266.3" cy="204" r="26.9"/>
<path class="st1" d="M534.7,471.2c73.8,49.3-45.7,143-77.6,168.9C448.8,634.1,443.1,553.8,534.7,471.2z"/>
<path class="st5" d="M478.2,613.5c-10.6,9.2-20,16.6-26.1,21.6c-11.5-6.2-7.5-51.7,25-102.3"/>
<path class="st5" d="M529.7,466.2c40.4,27,22.9,67.3-6.5,102.5"/>
<circle class="st9" cx="566.6" cy="109.8" r="13.2"/>
<path class="st9" d="M524.5,33.4c0-0.4,0-0.8,0-1.3c0-16.4,13.3-29.8,29.8-29.8c16.4,0,29.8,13.3,29.8,29.8
	c0,16.4-13.3,29.8-29.8,29.8c-5.9,0-11.7-1.8-16.6-5.1"/>
<path class="st9" d="M624.8,73.4c-11.1-3.3-17.4-15-14.1-26.2c3.3-11.1,15-17.4,26.2-14.1c11.1,3.3,17.4,15,14.1,26.2
	c-0.7,2.3-1.8,4.4-3.2,6.3"/>
<path class="st1" d="M508.5,426.5c-78,47-87,149-77,155c28-11,132-126,132-179c0-12-34.8-34.7-42.8-38c-4.5-1.8,0.3-9.1-15.7,5.6
	C505.1,384.9,504,412.2,508.5,426.5z"/>
<path class="st5" d="M515.7,359.6c8,3.3,42.8,26,42.8,38c0,13-6.3,29.8-16.2,47.9"/>
<path class="st5" d="M503.2,502.5c-29.5,36.9-62.7,68.5-76.7,74c-10-6-1-108,77-155"/>
<path class="st1" d="M506.5,299.5c16-12,72-66,78-74c13-4,36,59-78,151"/>
<path class="st5" d="M546.8,329.1c-14,15.3-29.1,29.5-45.4,42.4"/>
<path class="st5" d="M501.5,294.5c16-12,72-66,78-74c9.2-2.8,23.4,27.9-9.5,78.8"/>
</svg>
