<svg xmlns="http://www.w3.org/2000/svg" xmlns:xlink="http://www.w3.org/1999/xlink" viewBox="0 0 750 500"><defs><style>.cls-1,.cls-13,.cls-18,.cls-21,.cls-31,.cls-33,.cls-5,.cls-6,.cls-60,.cls-78{fill:none;}.cls-2{fill:#fff;}.cls-3{fill:url(#linear-gradient);}.cls-4{fill:#110909;}.cls-33,.cls-5,.cls-61{stroke:#110909;}.cls-13,.cls-18,.cls-21,.cls-31,.cls-33,.cls-45,.cls-46,.cls-48,.cls-5,.cls-6,.cls-60,.cls-61,.cls-78,.cls-9{stroke-linecap:round;stroke-linejoin:round;}.cls-5,.cls-6{stroke-width:2px;}.cls-18,.cls-48,.cls-6,.cls-8{stroke:#000;}.cls-7,.cls-9{fill:#503e65;}.cls-8{stroke-miterlimit:10;}.cls-9{stroke:#110809;}.cls-10{fill:#97b869;}.cls-11{clip-path:url(#clip-path);}.cls-12{fill:#ffc536;}.cls-13{stroke:#452d0f;}.cls-14{fill:url(#linear-gradient-2);}.cls-15{clip-path:url(#clip-path-2);}.cls-16{fill:url(#linear-gradient-3);}.cls-17{fill:url(#linear-gradient-4);}.cls-19{fill:url(#linear-gradient-5);}.cls-20{fill:url(#linear-gradient-6);}.cls-21{stroke:#d19e88;}.cls-22{fill:url(#linear-gradient-7);}.cls-23{clip-path:url(#clip-path-3);}.cls-24{fill:url(#linear-gradient-8);}.cls-25{fill:url(#linear-gradient-9);}.cls-26{fill:#fffcfa;}.cls-27{clip-path:url(#clip-path-4);}.cls-28{fill:#e3b1ff;}.cls-29{fill:url(#linear-gradient-10);}.cls-30{fill:url(#linear-gradient-11);}.cls-31{stroke:#ebcfc3;}.cls-32{fill:url(#linear-gradient-12);}.cls-34{fill:url(#linear-gradient-13);}.cls-35{fill:url(#linear-gradient-14);}.cls-36{fill:url(#linear-gradient-15);}.cls-37{fill:url(#linear-gradient-16);}.cls-38{fill:url(#linear-gradient-17);}.cls-39{fill:url(#linear-gradient-18);}.cls-40,.cls-61{fill:#517172;}.cls-41{fill:url(#linear-gradient-19);}.cls-42{fill:url(#linear-gradient-20);}.cls-43{fill:url(#linear-gradient-21);}.cls-44{fill:url(#linear-gradient-22);}.cls-45,.cls-47,.cls-48{fill:#654334;}.cls-45,.cls-46{stroke:#e09d75;stroke-width:4px;}.cls-46{fill:#633;}.cls-49{fill:url(#linear-gradient-23);}.cls-50{fill:#5464b5;}.cls-51{fill:#2d0e44;}.cls-52{fill:url(#linear-gradient-24);}.cls-53{fill:url(#linear-gradient-25);}.cls-54{clip-path:url(#clip-path-5);}.cls-55{fill:url(#linear-gradient-26);}.cls-56{fill:url(#linear-gradient-27);}.cls-57{clip-path:url(#clip-path-6);}.cls-58{fill:url(#linear-gradient-28);}.cls-59{fill:url(#linear-gradient-29);}.cls-60{stroke:#2a3442;}.cls-62{fill:url(#linear-gradient-30);}.cls-63{fill:url(#linear-gradient-31);}.cls-64{fill:url(#linear-gradient-32);}.cls-65{fill:url(#linear-gradient-33);}.cls-66{clip-path:url(#clip-path-7);}.cls-67{fill:#9c5e4f;}.cls-68{fill:url(#linear-gradient-34);}.cls-69{fill:url(#linear-gradient-35);}.cls-70{fill:#9c4732;}.cls-71{clip-path:url(#clip-path-8);}.cls-72{fill:url(#linear-gradient-36);}.cls-73{fill:url(#linear-gradient-37);}.cls-74{clip-path:url(#clip-path-9);}.cls-75{fill:url(#linear-gradient-38);}.cls-76{fill:#dd4b4b;}.cls-77{fill:url(#linear-gradient-39);}.cls-78{stroke:#2b2b2b;}</style><linearGradient id="linear-gradient" x1="366.76" y1="11.49" x2="366.76" y2="493.58" gradientTransform="translate(32.84 -44.5) rotate(6.92)" gradientUnits="userSpaceOnUse"><stop offset="0" stop-color="#f6ebff" stop-opacity="0.5"/><stop offset="1" stop-color="#ebd1ff"/></linearGradient><clipPath id="clip-path" transform="translate(0 0)"><path class="cls-1" d="M488.4,204.24a23.14,23.14,0,0,0-.77-7.23,2.42,2.42,0,0,0-1.42-1.73,2.62,2.62,0,0,0-1.08,0c-4.22.65-8.49,1.31-12.39,3-8.37,3.69-11.22,13-13.89,21.1-3,9.08-4.66,18.53-7.77,27.58-.93,2.69-2,5.43-1.85,8.27a2.1,2.1,0,0,0,.45,1.41,2.19,2.19,0,0,0,1,.52c2,.59,3.87.24,5.89.41,2.3.18,4.6.36,6.9.51q7.11.44,14.24.46a205.9,205.9,0,0,0,28.4-1.78c-.84.12-6.61-16.79-7.24-18.48q-3.57-9.48-6.85-19.06c-1.24-3.64-2.75-7.34-3.36-11.14A27.93,27.93,0,0,1,488.4,204.24Z"/></clipPath><linearGradient id="linear-gradient-2" x1="498.62" y1="152.25" x2="499.38" y2="214.54" gradientUnits="userSpaceOnUse"><stop offset="0" stop-color="#ffb7ab"/><stop offset="1" stop-color="#e09555"/></linearGradient><clipPath id="clip-path-2" transform="translate(0 0)"><path class="cls-1" d="M492,187.41c0,1,0,2.07,0,3.1,0,.14,0,.28,0,.42a2.67,2.67,0,0,1-.6,1.92c-.13.13-.29.25-.3.43a.55.55,0,0,0,.13.29,10.82,10.82,0,0,0,1.27,1.94,7.69,7.69,0,0,0,2.4,1.35,10.67,10.67,0,0,0,12.43-4.13c-1.11-1-1.18-2.77-1.18-4.3,0-3.26,0-6.49-.22-9.75-1.2-2.07-4.37-3.52-6.47-4a6.43,6.43,0,0,0-7.33,3.82,7.2,7.2,0,0,0-.61,2.14,16.9,16.9,0,0,0,.31,2.89C491.9,184.85,492,186.13,492,187.41Z"/></clipPath><linearGradient id="linear-gradient-3" x1="498.69" y1="152.25" x2="499.45" y2="214.54" xlink:href="#linear-gradient-2"/><linearGradient id="linear-gradient-4" x1="454.06" y1="181.94" x2="454.82" y2="244.23" gradientTransform="matrix(1.08, 0, 0, 1.18, 20.61, -66.67)" xlink:href="#linear-gradient-2"/><linearGradient id="linear-gradient-5" x1="445.01" y1="235.54" x2="446.36" y2="260.01" gradientUnits="userSpaceOnUse"><stop offset="0" stop-color="#b56a45"/><stop offset="1" stop-color="#946238"/></linearGradient><linearGradient id="linear-gradient-6" x1="444.09" y1="235.59" x2="445.44" y2="260.06" gradientTransform="translate(890.25 508.55) rotate(-180)" xlink:href="#linear-gradient-5"/><linearGradient id="linear-gradient-7" x1="429.65" y1="238.92" x2="431.17" y2="270.06" xlink:href="#linear-gradient-2"/><clipPath id="clip-path-3" transform="translate(0 0)"><path class="cls-1" d="M540.59,242.72c-.4,4.58-.84,9.39-2.84,13.6a9,9,0,0,1-2,3H495.21c-1.63-.31-3.26-.64-4.87-1-3.29-.77-6.64-1.71-9.3-3.79-3.81-3-5.54-7.63-7.53-11.86-2.53-5.35-5.14-7.6-9.8-10.93-2-1.42-4.54-1.88-5.32-4.55a6.18,6.18,0,0,1,0-2.9c.54-2.78,2.08-5.24,3.4-7.74,2-3.76,3.52-7.79,6-11.24a24.73,24.73,0,0,1,10.32-8.22c4.17-1.78,8.75-2,12.87-3.82,4.44-2,9.67-5.73,14.35-2.21,1.51,1.14,2.29,2.26,4.2,2.85a44.69,44.69,0,0,0,7.8,1.28A69.6,69.6,0,0,1,532,198.67c5.85,2.07,10.51,4.39,11.55,10.82.85,5.24-1,10.13-1.43,15.28Q541.38,233.76,540.59,242.72Z"/></clipPath><linearGradient id="linear-gradient-8" x1="456.66" y1="205.23" x2="471.94" y2="223.29" xlink:href="#linear-gradient-2"/><linearGradient id="linear-gradient-9" x1="455.94" y1="205.85" x2="471.21" y2="223.91" xlink:href="#linear-gradient-2"/><clipPath id="clip-path-4" transform="translate(0 0)"><path class="cls-1" d="M516.34,258H520a15,15,0,0,0,12.92-12.32H503.43A14.94,14.94,0,0,0,516.34,258Z"/></clipPath><linearGradient id="linear-gradient-10" x1="365.42" y1="228.05" x2="368.61" y2="277.8" gradientUnits="userSpaceOnUse"><stop offset="0" stop-color="#82a9d9"/><stop offset="1" stop-color="#5f7fb0"/></linearGradient><linearGradient id="linear-gradient-11" x1="364.36" y1="228.12" x2="367.55" y2="277.87" gradientTransform="translate(732.1 509.04) rotate(-180)" xlink:href="#linear-gradient-10"/><linearGradient id="linear-gradient-12" x1="607.17" y1="141.26" x2="567.4" y2="180.24" xlink:href="#linear-gradient-5"/><linearGradient id="linear-gradient-13" x1="262.75" y1="355.32" x2="269.9" y2="423.68" gradientTransform="matrix(-1, 0, -0.11, 0.97, 889.35, 18.04)" xlink:href="#linear-gradient-5"/><linearGradient id="linear-gradient-14" x1="-176.93" y1="-25.17" x2="-170.1" y2="40.15" gradientTransform="matrix(-0.63, 0.78, 0.78, 0.63, 513.82, 491.06)" xlink:href="#linear-gradient-5"/><linearGradient id="linear-gradient-15" x1="195.61" y1="271.38" x2="247.26" y2="332.65" gradientTransform="matrix(-1, 0, 0, 1, 820.58, 0)" xlink:href="#linear-gradient-10"/><linearGradient id="linear-gradient-16" x1="-121.66" y1="-106.65" x2="-75.27" y2="-51.61" gradientTransform="matrix(-0.7, 0.71, 0.71, 0.7, 580.27, 427.36)" xlink:href="#linear-gradient-10"/><linearGradient id="linear-gradient-17" x1="173.46" y1="292.3" x2="227.64" y2="356.58" gradientTransform="matrix(-1, 0, 0, 1, 820.58, 0)" xlink:href="#linear-gradient-10"/><linearGradient id="linear-gradient-18" x1="168.67" y1="296.84" x2="226.27" y2="365.18" gradientTransform="matrix(-1, 0, 0, 1, 820.58, 0)" xlink:href="#linear-gradient-10"/><linearGradient id="linear-gradient-19" x1="189.68" y1="161.98" x2="183.26" y2="215.34" gradientTransform="matrix(-1, 0, 0, 1, 820.58, 0)" xlink:href="#linear-gradient-5"/><linearGradient id="linear-gradient-20" x1="194" y1="150.61" x2="185.9" y2="217.96" gradientTransform="matrix(-1, 0, 0, 1, 820.58, 0)" xlink:href="#linear-gradient-5"/><linearGradient id="linear-gradient-21" x1="187.62" y1="149.84" x2="179.52" y2="217.19" gradientTransform="matrix(-1, 0, 0, 1, 820.58, 0)" xlink:href="#linear-gradient-5"/><linearGradient id="linear-gradient-22" x1="146.76" y1="224.29" x2="199.39" y2="275.89" gradientTransform="matrix(-1, 0, 0, 1, 820.58, 0)" xlink:href="#linear-gradient-5"/><linearGradient id="linear-gradient-23" x1="156.26" y1="196.59" x2="390.23" y2="377.35" xlink:href="#linear-gradient-2"/><linearGradient id="linear-gradient-24" x1="122.69" y1="240.04" x2="356.67" y2="420.8" xlink:href="#linear-gradient-2"/><linearGradient id="linear-gradient-25" x1="307.73" y1="218.2" x2="309.42" y2="320.97" xlink:href="#linear-gradient-10"/><clipPath id="clip-path-5" transform="translate(0 0)"><path class="cls-1" d="M274.87,238.89C300.81,164.75,390.94,388.6,310.16,322,290.31,302.78,280.4,257.34,274.87,238.89Z"/></clipPath><linearGradient id="linear-gradient-26" x1="273.06" y1="218.77" x2="274.75" y2="321.54" xlink:href="#linear-gradient-10"/><linearGradient id="linear-gradient-27" x1="222.3" y1="95.83" x2="487.08" y2="300.39" xlink:href="#linear-gradient-2"/><clipPath id="clip-path-6" transform="translate(0 0)"><path class="cls-1" d="M295,315.17q-.43,8.64-.88,17.27c-2,.46-4.06.83-6.1,1.17-10.5,1.74-21,3.59-31.64,3.72-.69,0-1.37,0-2,0-2.44-28.39-1.78-56.58.74-85.23.71-8.1,3.93-18.2,8.44-25a10.75,10.75,0,0,1,4.24-4.17c5.26-2.37,16.41-.87,21.64,1.78,6.1,3.09,8.18,11.72,9.09,17.85,2.53,17.2-1.61,36-2.5,53.41Z"/></clipPath><linearGradient id="linear-gradient-28" x1="185.93" y1="149.98" x2="438.14" y2="344.83" xlink:href="#linear-gradient-2"/><linearGradient id="linear-gradient-29" x1="249.73" y1="69.83" x2="490.09" y2="255.53" xlink:href="#linear-gradient-2"/><linearGradient id="linear-gradient-30" x1="472.46" y1="132.88" x2="479.3" y2="281.75" gradientTransform="matrix(-1, 0, 0, 1, 653.85, 0)" xlink:href="#linear-gradient-2"/><linearGradient id="linear-gradient-31" x1="529.82" y1="281.51" x2="531.34" y2="162.26" gradientTransform="matrix(-1, 0, 0, 1, 653.85, 0)" xlink:href="#linear-gradient-10"/><linearGradient id="linear-gradient-32" x1="500.7" y1="281.14" x2="502.22" y2="161.89" gradientTransform="matrix(-1, 0, 0, 1, 653.85, 0)" xlink:href="#linear-gradient-10"/><linearGradient id="linear-gradient-33" x1="523.39" y1="130.54" x2="530.22" y2="279.41" gradientTransform="matrix(-1, 0, 0, 1, 653.85, 0)" xlink:href="#linear-gradient-2"/><clipPath id="clip-path-7" transform="translate(0 0)"><path class="cls-1" d="M135.88,187.88c0,.15,0,.3,0,.46a.42.42,0,0,0,0,.19.44.44,0,0,0,.2.15,5.32,5.32,0,0,0,1.47.39,2.39,2.39,0,0,1,.75.16s.08,0,.08.08,0,.07-.06.1c-.88.78-1.67,1.51-2.63,2.21a15.9,15.9,0,0,1-9.76,2,15.5,15.5,0,0,1-5.83-1.93,9.35,9.35,0,0,1-2.88-2.21.4.4,0,0,1-.09-.17c0-.16.18-.26.34-.29a7.38,7.38,0,0,0,1.7-.39,3.86,3.86,0,0,0,.94-.91,6,6,0,0,0,1.2-3.08c.26-1.8.21-3.65.55-5.44a6.45,6.45,0,0,1,.8-2.21,5.52,5.52,0,0,1,1.44-1.49,9.17,9.17,0,0,1,4.35-1.61,10.11,10.11,0,0,1,4.44.41,7.65,7.65,0,0,1,3.63,2.54c.83,1.1.53,3.11.43,4.41a36.18,36.18,0,0,1-.82,5.07A10.54,10.54,0,0,0,135.88,187.88Z"/></clipPath><linearGradient id="linear-gradient-34" x1="519.79" y1="130.71" x2="526.62" y2="279.57" gradientTransform="matrix(-1, 0, 0, 1, 653.85, 0)" xlink:href="#linear-gradient-2"/><linearGradient id="linear-gradient-35" x1="532.3" y1="130.13" x2="539.14" y2="279" gradientTransform="matrix(-1, 0, 0, 1, 653.85, 0)" xlink:href="#linear-gradient-2"/><clipPath id="clip-path-8" transform="translate(0 0)"><path class="cls-1" d="M131.76,181.37c-.08-.12-.15-.24-.22-.36a1.82,1.82,0,0,1-.15-.61.62.62,0,0,1,.1-.48.73.73,0,0,1,.53-.22c.32,0,.62,0,.93,0,.78,0,1.57,0,2.36.09.44,0,.88,0,1.33.07s.63.05.94.1.72.05.84.26a.47.47,0,0,1,.05.31c0,.1-.05.21-.07.31s0,.33-.06.48a1.1,1.1,0,0,1-.29.36,2.4,2.4,0,0,0-.58,1.17c-.3,1.06-2.23,1.51-3.21,1.1a4.22,4.22,0,0,1-1.37-1.16A12.14,12.14,0,0,1,131.76,181.37Z"/></clipPath><linearGradient id="linear-gradient-36" x1="560.53" y1="128.83" x2="567.37" y2="277.7" gradientTransform="matrix(-1, 0, 0, 1, 653.85, 0)" xlink:href="#linear-gradient-2"/><linearGradient id="linear-gradient-37" x1="535.84" y1="129.97" x2="542.67" y2="278.84" gradientTransform="matrix(-1, 0, 0, 1, 653.85, 0)" xlink:href="#linear-gradient-2"/><clipPath id="clip-path-9" transform="translate(0 0)"><path class="cls-1" d="M118.93,216.38c.6,4.24,9.48,6.51,19.83,5.06s18.28-6.06,17.68-10.31-9.47-6.51-19.83-5.06S118.34,212.13,118.93,216.38Z"/></clipPath><linearGradient id="linear-gradient-38" x1="556.7" y1="281.85" x2="558.22" y2="162.6" gradientTransform="matrix(-1, 0, 0, 1, 653.85, 0)" xlink:href="#linear-gradient-10"/><linearGradient id="linear-gradient-39" x1="478.83" y1="132.59" x2="485.67" y2="281.45" gradientTransform="matrix(-1, 0, 0, 1, 653.85, 0)" xlink:href="#linear-gradient-2"/></defs><title>illustration-8</title><g id="BACKGROUND"><rect class="cls-2" width="750" height="500"/></g><g id="OBJECTS"><path class="cls-3" d="M599.11,106.45c-44.17-33.49-107.65-5.67-148,20.39-33.47,21.6-67.23,52.75-108.31,56C299.71,186.28,258,167,214.9,172.35c-44.53,5.57-83.52,39.8-97.19,82.55s-2.59,91.91,26.17,126.37c16.86,20.19,37.39,36.72,61.25,47H471c15.33-8.28,29.19-19,40.28-32.74,27.42-34,41.83-76,64.13-113.2,20.71-34.53,47.72-66.71,50.7-108.64C627.89,148.58,619.17,121.67,599.11,106.45Z" transform="translate(0 0)"/><path class="cls-4" d="M537.87,303.6c0,7.19-16.86,13-37.67,13s-37.67-5.82-37.67-13,16.86-13,37.67-13S537.87,296.42,537.87,303.6Z" transform="translate(0 0)"/><ellipse class="cls-5" cx="501.14" cy="365.11" rx="28.13" ry="9.39"/><ellipse class="cls-5" cx="501.14" cy="337.34" rx="28.13" ry="9.39"/><line class="cls-6" x1="472.41" y1="307.19" x2="472.41" y2="426.03"/><line class="cls-6" x1="517.12" y1="306.85" x2="517.12" y2="426.03"/><line class="cls-6" x1="485.13" y1="305.47" x2="485.13" y2="426.03"/><line class="cls-6" x1="528.94" y1="305.47" x2="528.94" y2="426.03"/><path class="cls-7" d="M469.39,352.59a14,14,0,0,0-4.71-3.75,6.64,6.64,0,0,0-5.85,0,5.29,5.29,0,0,0-2.63,4.57c0,2.58,1.2,5,2.13,7.33l3.4,8.67a1.53,1.53,0,0,0,.6.86,1.43,1.43,0,0,0,1,0c2.42-.6,4.14-2.22,6.16-3.53,1.85-1.2,3.73-1.84,4.35-4.24a7.14,7.14,0,0,0-.23-3.91C472.75,355.93,471.11,354.7,469.39,352.59Z" transform="translate(0 0)"/><path class="cls-8" d="M478.17,362c-.43-1.14-1-2.36-1.84-2.54-1.13-.24-4.08,2.17-5.15,2.77-3.42,1.92-6.91,3.73-10.43,5.46a6.49,6.49,0,0,1,0,2.67,7.46,7.46,0,0,1-1,2.13,39.5,39.5,0,0,1-8.17,9.31A7.79,7.79,0,0,0,449,385a3.48,3.48,0,0,0,.89,3.84,4.53,4.53,0,0,0,3.58.51,21.39,21.39,0,0,0,5.07-1.73c8.17-3.72,15.2-9.49,22.13-15.19a2,2,0,0,0,.84-1.15,2,2,0,0,0-.22-1c-.93-2.21-1.75-4.42-2.55-6.67C478.62,363.27,478.43,362.63,478.17,362Z" transform="translate(0 0)"/><path class="cls-7" d="M474.51,363.72a73.12,73.12,0,0,0,5.82,11.35,2.62,2.62,0,0,0,.72.83,2.35,2.35,0,0,0,1.41.24c5.1-.33,9.32-4.11,12.37-8.21a1.72,1.72,0,0,0,.47-1.12A1.81,1.81,0,0,0,495,366a22.68,22.68,0,0,1-2.27-5.9l-4.32-15.24c-.94-3.33-3.14-6.68-6.75-7.25a13.14,13.14,0,0,0-7.06.66,8.93,8.93,0,0,0-5,4.89c-1.31,3.41,0,7.21,1.23,10.63l2.7,7.3C473.8,362,474.15,362.84,474.51,363.72Z" transform="translate(0 0)"/><path d="M494.34,363.4c-.55-1.18-1.09-2.36-1.64-3.55a99,99,0,0,1-16.23,9.55c.35-.16,1.33,3.28,1.38,3.6a6.24,6.24,0,0,1-.38,3.66,51.75,51.75,0,0,1-6.89,11,12.21,12.21,0,0,0-1.75,2.84,4.1,4.1,0,0,0-.13,3.11c1.23,2.8,6.39,1.32,8.39.43,6-2.65,9.29-7.79,13.48-12.45,2-2.2,4.26-4.05,6.33-6.16,1.9-1.92.84-4.69-.18-6.88Z" transform="translate(0 0)"/><path class="cls-7" d="M515.86,263.54a3.54,3.54,0,0,0-.75-1.91,3.6,3.6,0,0,0-2.47-.82,251.29,251.29,0,0,0-35.14-.05c.65,0-2.69,5.37-3.3,5.83-2.22,1.69-5.23,2.48-7.77,3.53l-20.29,8.36c-6,2.48-11.83,6.31-14.41,12.58-3.41,8.28-.77,17.69,1.9,26.25,4.34,13.92,15.78,31.21,20.94,44.84,8.29-1,18.25-6.68,25.42-11,1.22-.73-12.28-16.74-12.88-18.41-1.88-5.24-3.61-10.39-5.47-15.61-.66-1.85-5.66-19.81-6.11-19.81,9.11-3.66,18.5-3.87,28.16-5.68s19.91-3.84,27.72-10.08C516,277.92,516.73,268.74,515.86,263.54Z" transform="translate(0 0)"/><path class="cls-7" d="M451.39,294.71c5.23-6.38,17.42-8.72,24.77-11.13,5.1-1.67,12-2.58,16.33-5.66,4.2-3,5-8.56,4.61-13.47a3.49,3.49,0,0,1,.16-1.82c.5-1,1.85-1.21,3-1.26l14.39-.71c5.32-.26,13.94-2.25,15.65,4.22a109.94,109.94,0,0,1,3.24,22.18c.24,4.82.09,10-2.55,14-3.79,5.79-11.36,7.51-18.19,8.64-11.87,2-23.89,3.64-35.22,7.68-9.81,3.5-18.51,3.88-25.28-5.19C447.51,305.81,447.44,299.52,451.39,294.71Z" transform="translate(0 0)"/><path class="cls-7" d="M485,357.43c3-1.48,4.62-1.68,7.33-3.65.56-.49,1.13-1,1.71-1.42-3.11-13.21-7.52-25.87-10.19-39.3a84.26,84.26,0,0,0-3.37-13.15,41.49,41.49,0,0,0-5.08-9.55,9.2,9.2,0,0,0-3.93-3.55,8.76,8.76,0,0,0-4.32-.23c-8.87,1.16-13.34,6.07-14.73,14.85-.06.36-.11.72-.16,1.08-1.59,11.72,1.08,23.65,4.5,35,1.72,5.72,3.4,11.46,4.94,17.23.66,2.45.81,5,1.75,7.31.47,1.15.45,1.15.9,2.3A71.23,71.23,0,0,0,485,357.43Z" transform="translate(0 0)"/><path class="cls-9" d="M494,270.67c.77,2-.69,4.09-2.24,5.54-10.61,10-29,6.92-38.79,18.61a17,17,0,0,0-3.2,7.56c-1.65,7.85.85,16.93,2.76,24.65,2.32,9.38,7.34,25.08,10.79,34.09" transform="translate(0 0)"/><path class="cls-9" d="M485,316.67c-1.89-4.41-4-7.05-6.43-11.21" transform="translate(0 0)"/><path class="cls-10" d="M439.94,236.44c-2.37.25-4.74.46-7.09.89a23.07,23.07,0,0,0-8.85,3.32c-4.83,3.31-6.92,9.2-4.55,14.69A6.92,6.92,0,0,0,421,257.7c1.51,1.42,3.74,1.71,5.8,1.76,2.69.05,5.37-.21,8.05-.34,2.46-.13,5,.18,7.38,0,5.48-.44,11.06-.24,16.57-.49,3.15-.15,6.41-.36,9.2-1.83,2.19,0,4.22-3.28,4.32-5.14a28.78,28.78,0,0,0-1.18-8.94c-1.18-4.21-3.7-8.52-7.89-9.77-3.31-1-6.83.16-10.16,1.08a76.3,76.3,0,0,1-10.79,2.15Z" transform="translate(0 0)"/><path class="cls-10" d="M540.59,242.72c-.4,4.58-.84,9.39-2.84,13.6a9,9,0,0,1-2,3H495.21c-1.63-.31-3.26-.64-4.87-1-3.29-.77-6.64-1.71-9.3-3.79-3.81-3-5.54-7.63-7.53-11.86-2.53-5.35-5.14-7.6-9.8-10.93-2-1.42-4.54-1.88-5.32-4.55a6.18,6.18,0,0,1,0-2.9c.54-2.78,2.08-5.24,3.4-7.74,2-3.76,3.52-7.79,6-11.24a24.73,24.73,0,0,1,10.32-8.22c4.17-1.78,8.75-2,12.87-3.82,4.44-2,9.67-5.73,14.35-2.21,1.51,1.14,2.29,2.26,4.2,2.85a44.69,44.69,0,0,0,7.8,1.28c5,.61,9.84,2.23,14.74,3.46,6.6,1.66,10.51,4.39,11.55,10.82.85,5.24-1,10.13-1.43,15.28Q541.38,233.76,540.59,242.72Z" transform="translate(0 0)"/><path class="cls-10" d="M488.4,204.24a23.14,23.14,0,0,0-.77-7.23,2.42,2.42,0,0,0-1.42-1.73,2.62,2.62,0,0,0-1.08,0c-4.22.65-8.49,1.31-12.39,3-8.37,3.69-11.22,13-13.89,21.1-3,9.08-4.66,18.53-7.77,27.58-.93,2.69-2,5.43-1.85,8.27a2.1,2.1,0,0,0,.45,1.41,2.19,2.19,0,0,0,1,.52c2,.59,3.87.24,5.89.41,2.3.18,4.6.36,6.9.51q7.11.44,14.24.46a205.9,205.9,0,0,0,28.4-1.78c-.84.12-6.61-16.79-7.24-18.48q-3.57-9.48-6.85-19.06c-1.24-3.64-2.75-7.34-3.36-11.14A27.93,27.93,0,0,1,488.4,204.24Z" transform="translate(0 0)"/><g class="cls-11"><path class="cls-12" d="M448.34,213.16A3.3,3.3,0,0,1,450,213a90.91,90.91,0,0,0,26.9.61c.49,2.61-1.71,5.42-1.39,8.08-2.28.11-1.93,0-3.48,0-8.41.18-16.78-1-25.08-2.19C442.94,219,444.47,213,448.34,213.16Z" transform="translate(0 0)"/><path class="cls-12" d="M451.08,226.67a2.57,2.57,0,0,1,.36-.62c1.67-2.15,5.19-.93,7.4-.66,3.14.38,6.29.65,9.44.84,6.36.38,12.74.46,19.11.46,3.66,0,4.57,5.62.88,6.49-6.28,1.48-13.29.88-19.68.47a71.83,71.83,0,0,1-13.62-1.9c-1.59-.42-3.3-1.15-3.93-2.67A3.06,3.06,0,0,1,451.08,226.67Z" transform="translate(0 0)"/></g><path class="cls-13" d="M433.18,243.71a5.54,5.54,0,0,1-2.28-9.18,7.19,7.19,0,0,1,5.9-1.79,9.09,9.09,0,0,1,5.76,2.91,7.87,7.87,0,0,1,1.95,6.11,4.68,4.68,0,0,1-.94,2.39,4.22,4.22,0,0,1-5.32.7,5.1,5.1,0,0,1-1.84-6.42,6,6,0,0,1,4.58-3.05,9.77,9.77,0,0,1,5.55,1.08c2,1,3.81,2.56,4.2,4.71s-1.41,4.67-3.57,4.32a3.54,3.54,0,0,1-2.68-2.92,8.33,8.33,0,0,1,3.4-7.32,7.15,7.15,0,0,1,5.67-.22,8.45,8.45,0,0,1,5.16,3.9c1,2,.6,4.74-1.28,5.92a4.75,4.75,0,0,1-3.27.56,5.81,5.81,0,0,1-4.34-3,4.47,4.47,0,0,1,.77-5.09c1.84-1.77,5.22-1.16,6.67,1a6.16,6.16,0,0,1-.57,7.13,9.31,9.31,0,0,1-6.75,3.12,20,20,0,0,1-7.51-1.31" transform="translate(0 0)"/><path d="M514.87,173.41a9,9,0,0,0,1.06-3.8,14.41,14.41,0,0,0-.58-4,18.13,18.13,0,0,0-2.15-5.32,11,11,0,0,0-13-4.31,22.45,22.45,0,0,0-4.81,2.78l-5.41,3.75a5,5,0,0,0-1.75,1.7,3.54,3.54,0,0,0-.31,1.79c.13,2.7,2.19,4.55,4.1,6.21a19.35,19.35,0,0,0,10.47,4.53,25,25,0,0,0,9-.34A5.83,5.83,0,0,0,514.87,173.41Z" transform="translate(0 0)"/><path class="cls-14" d="M492,187.41c0,1,0,2.07,0,3.1,0,.14,0,.28,0,.42a4.32,4.32,0,0,1-.17,1.18,2.6,2.6,0,0,1-.72,1c-.18.21-.16.18,0,.47s.27.47.42.7a6.66,6.66,0,0,0,3.38,2.57,10.67,10.67,0,0,0,12.43-4.13c-1.11-1-1.18-2.77-1.18-4.3,0-3.26,0-6.49-.22-9.75-1.2-2.07-4.37-3.52-6.47-4a6.43,6.43,0,0,0-7.33,3.82,7.2,7.2,0,0,0-.61,2.14,16.9,16.9,0,0,0,.31,2.89C491.9,184.85,492,186.13,492,187.41Z" transform="translate(0 0)"/><path class="cls-16" d="M488.29,176.26a19.08,19.08,0,0,0,1.57,6.72,10.07,10.07,0,0,0,4.67,4.92c3.83,1.78,8.62.13,11.38-3.08s3.76-7.62,3.79-11.87a15.53,15.53,0,0,0-2-8.61,10.38,10.38,0,0,0-7.57-4.67c-3.12-.32-7.56,1.08-9.39,3.86C488.33,167.1,488,172.11,488.29,176.26Z" transform="translate(0 0)"/><path class="cls-17" d="M513.36,175.05a3.28,3.28,0,1,1-3.26-3.57A3.42,3.42,0,0,1,513.36,175.05Z" transform="translate(0 0)"/><path class="cls-18" d="M510.83,173.9a1.77,1.77,0,0,0-2,1.06,2.91,2.91,0,0,0,.17,2.41" transform="translate(0 0)"/><path d="M502.57,169.51a50.34,50.34,0,0,0,5.42,2.34c1.11.43,3.86,1.48,4.8.26a2.54,2.54,0,0,0,.39-1.51,13.66,13.66,0,0,0-1.83-6.55c-.75-1.37-1.76-2.54-2.58-3.86a5,5,0,0,0-2.3-2.36,9.56,9.56,0,0,0-6-.43,24.64,24.64,0,0,0-5.64,2.23,49.91,49.91,0,0,0-4.54,2.76,11.38,11.38,0,0,0-3.68,3.56A3.55,3.55,0,0,0,486,168c.29,3.53,4.92.55,6.42-.07a9,9,0,0,0,2.88-1.86,5.52,5.52,0,0,0,1.73-2.26,8.32,8.32,0,0,0,2.21,3.34A14.47,14.47,0,0,0,502.57,169.51Z" transform="translate(0 0)"/><path class="cls-18" d="M502.89,172a4.19,4.19,0,0,0-4.05-.88" transform="translate(0 0)"/><path class="cls-18" d="M488.93,171.88a3.15,3.15,0,0,1,3.58-.42" transform="translate(0 0)"/><path class="cls-18" d="M495.06,172.73a10.13,10.13,0,0,1-1.37,4.67,1.21,1.21,0,0,0-.23,1.08.75.75,0,0,0,.62.36,2.09,2.09,0,0,0,.74-.12" transform="translate(0 0)"/><path d="M500,173.28a.87.87,0,0,0,0,1.73A.87.87,0,0,0,500,173.28Z" transform="translate(0 0)"/><path d="M490.33,172.91a.87.87,0,0,0,0,1.73A.87.87,0,0,0,490.33,172.91Z" transform="translate(0 0)"/><path d="M523.87,158.75a7.06,7.06,0,0,0-3.2-3.17,8.22,8.22,0,0,0-3.45-.76,6.53,6.53,0,0,0-2.28.33c-4.42,1.59-7,8.58-3.32,12.11,1.19,1.14,2.58,1.11,4.09,1.33,2.12.31,4,.32,5.9-1a7.14,7.14,0,0,0,3-6.3A6.94,6.94,0,0,0,523.87,158.75Z" transform="translate(0 0)"/><path class="cls-10" d="M534,268.44a168.23,168.23,0,0,1,.18-22.34c.33-4.41,3.23-8.17,4.72-12.33a130.48,130.48,0,0,0,4.1-14.69c1.38-6,1.22-13-4-17.23-6.61-5.36-15.17-3-20.87,2.48a62.41,62.41,0,0,0-10.19,13c-2.63,4.37-4.39,9.85-7.84,13.65a109.47,109.47,0,0,1-10.68,10.31c-3.74,3.14-7.75,6.1-10.48,10.14a42.29,42.29,0,0,0-3.79,7.62l-3.87,9.25.52.12Z" transform="translate(0 0)"/><path class="cls-10" d="M515,243.35c-3-5.45-7.22-10.12-11.49-14.65-5.85-6.2-12.85-14.16-22.44-13.39-4.34.35-8.31,1.81-9.87,5.87a16.8,16.8,0,0,0-.8,8.68c.64,2.47,2.84,5.19,4.23,7.3a56.85,56.85,0,0,0,11.16,12.56c6.59,5.41,15.6,9.62,24.24,10.09C519.67,260.33,518.39,249.4,515,243.35Z" transform="translate(0 0)"/><path d="M479.59,193.32l-31.31,26a.37.37,0,0,1-.51-.05.36.36,0,0,1,0-.51l30.48-26.94a1,1,0,0,1,1.42.09,1,1,0,0,1-.09,1.41Z" transform="translate(0 0)"/><path class="cls-13" d="M458.25,242.56c-1.79-1.62-4-2.64-6-4-1.64-1.16-3.87-2.46-4.4-4.5a11,11,0,0,1-.18-3.29,5,5,0,0,1,.28-1.55,1.65,1.65,0,0,1,1.13-1,1.54,1.54,0,0,1,1.66,1.12,2.57,2.57,0,0,1-.41,2.09c-1.18,1.84-4.8,2.94-5.22.13-.33-2.25.58-4.76,1.37-6.82a57.48,57.48,0,0,0,2.34-6.12,4,4,0,0,0,.06-2.38,1.78,1.78,0,0,0-3-.46,5,5,0,0,0-.66,3.3c.29,3,.44,7.15-3.77,6.61a5.24,5.24,0,0,0-2.3,0,1.64,1.64,0,0,0-1.2,1.75c.15.68.85,1.07,1.38,1.51a4.43,4.43,0,0,1,1.22,1.63,1.33,1.33,0,0,1,.14.67,1.09,1.09,0,0,1-1.22.78,4.38,4.38,0,0,1-1.48-.59c-1.55-.78-4.54-1.69-6-.32a2.81,2.81,0,0,0-.76,1.68c-.56,3.84,3.58,8.38,6.56,10.26" transform="translate(0 0)"/><path d="M475,186.83,448.29,217.5a.37.37,0,0,1-.56-.48l25.76-31.48a1,1,0,0,1,1.41-.14,1,1,0,0,1,.14,1.4Z" transform="translate(0 0)"/><path class="cls-19" d="M465.12,237.58a20.28,20.28,0,0,1-40,0Z" transform="translate(0 0)"/><rect class="cls-20" x="436.13" y="250.81" width="17.98" height="6.92" transform="translate(890.25 508.55) rotate(180)"/><line class="cls-21" x1="454.57" y1="253.18" x2="435.6" y2="253.18"/><line class="cls-21" x1="454.57" y1="255.62" x2="435.6" y2="255.62"/><path class="cls-21" d="M430.07,241.91l1.37,1" transform="translate(0 0)"/><path class="cls-21" d="M457.59,242.31a7.1,7.1,0,0,0-2.3,1.19" transform="translate(0 0)"/><path class="cls-21" d="M445.34,240.27a15,15,0,0,0-.19,2.41" transform="translate(0 0)"/><path class="cls-21" d="M450.13,248.93a25.47,25.47,0,0,0-2.9-.11" transform="translate(0 0)"/><path class="cls-21" d="M439.15,242.18c-.39.72-.75,1.46-1.08,2.2" transform="translate(0 0)"/><path class="cls-18" d="M434.78,247.72a20.16,20.16,0,0,0,2.63,1.77" transform="translate(0 0)"/><path class="cls-21" d="M443.93,245.69l-2.52.65" transform="translate(0 0)"/><path class="cls-21" d="M451.23,239.06a9.52,9.52,0,0,1,.16,1.59" transform="translate(0 0)"/><path class="cls-21" d="M461.2,239l1.26,2" transform="translate(0 0)"/><path class="cls-21" d="M456.33,248.76a19.43,19.43,0,0,0-2.25-1.69" transform="translate(0 0)"/><path class="cls-18" d="M474.67,237.16c-.4,6.19.1,15.17.52,21.91" transform="translate(0 0)"/><path class="cls-21" d="M450,243.12c.1.46.19.92.28,1.37" transform="translate(0 0)"/><path class="cls-21" d="M436.25,239.77c-.95-.11-1.89-.24-2.84-.39" transform="translate(0 0)"/><path class="cls-21" d="M442.17,249l-.6,2.09" transform="translate(0 0)"/><path class="cls-18" d="M480.46,244.62A53.91,53.91,0,0,1,472.1,233a17.46,17.46,0,0,1-1.89-4.81,11.44,11.44,0,0,1,.91-6.28" transform="translate(0 0)"/><path class="cls-18" d="M483.83,247.41a135.38,135.38,0,0,0,14,9.92" transform="translate(0 0)"/><path class="cls-18" d="M499.77,180.28a3.57,3.57,0,0,1-2,1.67" transform="translate(0 0)"/><path class="cls-22" d="M430.1,245.09a34.59,34.59,0,0,1,4,1.24c1.11.43,3.45,1.08,3.76,2.38.17.68-.39,1.54-1.08,1.4a3.25,3.25,0,0,1,1.79,1.13c.38.61.13,1.63-.58,1.72a1.15,1.15,0,0,1,1,1.43,1.46,1.46,0,0,1-1.56,1c1,.11.22,1.71-.34,1.91a10.33,10.33,0,0,1-2.55.18c-2.43.17-4.86.31-7.3.28-1.93,0-4.84-.51-4.79-3a1.49,1.49,0,0,0,0-.52,1.23,1.23,0,0,0-.21-.37,1.7,1.7,0,0,1-.17-2.05,1.17,1.17,0,0,0,.24-.3.81.81,0,0,0-.05-.46,3,3,0,0,1,1.1-3.14.83.83,0,0,0,.3-.29.85.85,0,0,0,.06-.42c0-1.6,1.22-2.39,2.68-2.54a9.65,9.65,0,0,1,3.15.34Z" transform="translate(0 0)"/><path class="cls-18" d="M437.73,255.49q-6-.09-12.05-.58" transform="translate(0 0)"/><path class="cls-18" d="M438.27,252.9l-12.36-1" transform="translate(0 0)"/><path class="cls-18" d="M437.2,250.15l-11.37-1.23" transform="translate(0 0)"/><g class="cls-23"><path class="cls-12" d="M519.36,215.12a97.43,97.43,0,0,1,28,16.39,2.89,2.89,0,0,1,.43,4c2.19,2.83-2.14,6.82-5.14,4.17a92.34,92.34,0,0,0-27-16.63C516.88,220.38,517.48,217.32,519.36,215.12Z" transform="translate(0 0)"/><path class="cls-12" d="M513.86,228.24c.19-.3.45-.34,1.07-.14a25.6,25.6,0,0,1,3.75,1.66c3,1.51,5.94,3.19,8.84,4.9.57.34,2,1.63,2.72,1.63q4.21,2.63,8.14,5.66c2.12,1.64,5,3,6.27,5.46,1,1.9.57,4.71-1.41,5.56a4.58,4.58,0,0,1-2.79.1c-2.67-.61-5-2.3-7.19-3.89q-5.89-4.2-12.16-7.85c-2.78-1.62-5.6-3-8.46-4.44a1.91,1.91,0,0,1-.6-.4,1.72,1.72,0,0,1-.31-1.36,8.58,8.58,0,0,1,.46-1.86c.45-1.41.91-2.82,1.36-4.23A4.32,4.32,0,0,1,513.86,228.24Z" transform="translate(0 0)"/></g><path class="cls-18" d="M511.56,235.48A99.61,99.61,0,0,1,522.3,209" transform="translate(0 0)"/><path class="cls-18" d="M475,217.47c1.82-2.3,5.34-2.15,8.19-1.42a46.93,46.93,0,0,1,17.71,9.43,140.78,140.78,0,0,1,14.41,14.18" transform="translate(0 0)"/><path class="cls-24" d="M465.58,218.37a3.35,3.35,0,0,0,3.13.12c1.51-1,.79-2.51-.07-3.59a6.74,6.74,0,0,0-4-2.18,2.59,2.59,0,0,0-2,.32,3.2,3.2,0,0,0-.81,1,1.82,1.82,0,0,0-.32,1.14,1.93,1.93,0,0,0,.74,1.05,14.27,14.27,0,0,0,3.11,2Z" transform="translate(0 0)"/><path class="cls-25" d="M473.54,214.15l-1.54-2.4a49.88,49.88,0,0,0-3.5-5c-1.48-1.79-3.22-4-5.84-3.39a9.94,9.94,0,0,0-2.93,1.42L453.08,209a17.66,17.66,0,0,0-2.69,1.94c-.39.37-.76,1-.43,1.41s.76.29,1.17.22a.73.73,0,0,0-.37.9.68.68,0,0,0,1,.29,1.19,1.19,0,0,0,.12,1.35,1.91,1.91,0,0,0,1.89.27,1.14,1.14,0,0,0,.7,1.08,2.83,2.83,0,0,0,1.39.1,34.4,34.4,0,0,0,8.2-1.89,29.82,29.82,0,0,0,2.46,3.14,44,44,0,0,0,5.19,4.31,1.1,1.1,0,0,0,.4.24,1.14,1.14,0,0,0,.37,0,7.46,7.46,0,0,0,2.42-.91,2.83,2.83,0,0,0,1.28-1.3,3.37,3.37,0,0,0-.73-2.9Z" transform="translate(0 0)"/><path class="cls-18" d="M453.6,215.27a55.63,55.63,0,0,0,9.21-3.16" transform="translate(0 0)"/><path class="cls-18" d="M451.81,213.84a12.28,12.28,0,0,1,4.13-2.08c2.26-.72,4.21-2.25,6.51-2.84" transform="translate(0 0)"/><path class="cls-18" d="M467.63,218.93a20.18,20.18,0,0,1-3.5-4.26,10.09,10.09,0,0,1-2.65.94" transform="translate(0 0)"/><path class="cls-18" d="M450.86,212.69a22.2,22.2,0,0,1,5.6-3.91c1-.47,2-.87,2.91-1.38a15.08,15.08,0,0,0,1.76-1.08" transform="translate(0 0)"/><path class="cls-18" d="M471.13,221.81a3.93,3.93,0,0,0,5.57-2.73" transform="translate(0 0)"/><path class="cls-18" d="M491.87,186.15a7.71,7.71,0,0,0,5.82,2.6,9.33,9.33,0,0,0,6-2.32" transform="translate(0 0)"/><path class="cls-18" d="M490.85,192.81a12,12,0,0,0,1,1.7,3.86,3.86,0,0,0,1.49,1.26" transform="translate(0 0)"/><path class="cls-18" d="M507.51,193.2a11.8,11.8,0,0,1-10.9,4.2" transform="translate(0 0)"/><ellipse class="cls-4" cx="650.43" cy="303.89" rx="37.67" ry="13.01"/><ellipse class="cls-5" cx="649.49" cy="369" rx="28.13" ry="9.39"/><ellipse class="cls-5" cx="649.49" cy="337.63" rx="28.13" ry="9.39"/><line class="cls-6" x1="678.23" y1="307.48" x2="678.23" y2="426.32"/><line class="cls-6" x1="633.52" y1="307.14" x2="633.52" y2="426.32"/><line class="cls-6" x1="665.5" y1="305.75" x2="665.5" y2="426.32"/><line class="cls-6" x1="621.69" y1="305.75" x2="621.69" y2="426.32"/><path class="cls-26" d="M516.34,258H520a15,15,0,0,0,12.92-12.32H503.43A14.94,14.94,0,0,0,516.34,258Z" transform="translate(0 0)"/><g class="cls-27"><path class="cls-28" d="M529.75,243.45a20.07,20.07,0,0,1-7.12,13.72,32,32,0,0,0,5.81-14c.1-.56-.77-.81-.87-.24-1.09,6.09-3.55,12.28-8.25,16.45l-.41.22A43,43,0,0,0,523,241.26a.45.45,0,0,0-.9,0,42.07,42.07,0,0,1-3.92,17.86q-.45-8.91-1.25-17.78c0-.57-.95-.57-.89,0q.79,9,1.25,17.92c-2.9-5.2-4.91-11-4.78-17a.45.45,0,0,0-.9,0,33.61,33.61,0,0,0,4.13,16A23.18,23.18,0,0,1,508,243.12c-.05-.57-1-.57-.9,0a24.22,24.22,0,0,0,7.19,15.13,22.77,22.77,0,0,0,2.56,2.15.41.41,0,0,0,.05.09.38.38,0,0,0,.36.21l.87.58a.42.42,0,0,0,.63-.26c.38-.29.74-.6,1.1-.91a21.11,21.11,0,0,0,9.86-12,20.61,20.61,0,0,0,.89-4.67C530.69,242.87,529.79,242.87,529.75,243.45Z" transform="translate(0 0)"/></g><path class="cls-13" d="M352.71,245.65a10.46,10.46,0,0,1-3.1-3.62,5.36,5.36,0,0,1-.1-4.64,3.64,3.64,0,0,1,4-1.93,3.91,3.91,0,0,1,2.43,2.37,8.73,8.73,0,0,1,.49,3.45c0,.63-.19,1.43-.81,1.51s-1-.6-1.13-1.18a6.24,6.24,0,0,1,3.17-6.76,2.86,2.86,0,0,1,1.58-.37,3,3,0,0,1,2.2,2,7.48,7.48,0,0,1,.59,3.23,3.15,3.15,0,0,1-.74,2.08,1.47,1.47,0,0,1-2,.12,2.07,2.07,0,0,1-.3-1.74,10.48,10.48,0,0,1,3-5.71c1.07-1,2.62-1.89,4-1.38a3.17,3.17,0,0,1,1.9,2.41,6.55,6.55,0,0,1-.29,3.16c-.23.8-.77,1.73-1.6,1.66a1.36,1.36,0,0,1-1.07-1.29,3.92,3.92,0,0,1,.44-1.76,8,8,0,0,1,2-3.19,2.77,2.77,0,0,1,3.48-.25c1.06.94.86,2.64.39,4a2.3,2.3,0,0,1-.77,1.22.88.88,0,0,1-1.27-.23,1.22,1.22,0,0,1,0-.71,8.46,8.46,0,0,1,1.3-3.15c.77-1.12,2.25-2.11,3.4-1.4a2.89,2.89,0,0,1,1.08,2.24,5.8,5.8,0,0,1-1.17,4.82,1.25,1.25,0,0,1-1.29.46c-.6-.23-.66-1.05-.54-1.69a8.77,8.77,0,0,1,2-4.18,4,4,0,0,1,3.66-1.66,3.54,3.54,0,0,1,2.43,2.95,6.59,6.59,0,0,1-1.61,5.3,10.14,10.14,0,0,1-4.83,2.93" transform="translate(0 0)"/><path class="cls-29" d="M386.05,237.83a20.29,20.29,0,0,1-40,0Z" transform="translate(0 0)"/><rect class="cls-30" x="357.06" y="251.06" width="17.98" height="6.92" transform="translate(732.1 509.04) rotate(180)"/><line class="cls-31" x1="375.5" y1="253.42" x2="356.53" y2="253.42"/><line class="cls-31" x1="375.5" y1="255.87" x2="356.53" y2="255.87"/><path class="cls-31" d="M349.85,241.64l1.37,1" transform="translate(0 0)"/><path class="cls-31" d="M377.27,243.09a7.15,7.15,0,0,0-2.31,1.19" transform="translate(0 0)"/><path class="cls-31" d="M365.12,240a16.33,16.33,0,0,0-.19,2.42" transform="translate(0 0)"/><path class="cls-31" d="M367.48,249.46a25.74,25.74,0,0,0-2.91-.11" transform="translate(0 0)"/><path class="cls-31" d="M358.94,241.91c-.39.72-.75,1.46-1.09,2.21" transform="translate(0 0)"/><path class="cls-31" d="M363.72,245.42l-2.53.66" transform="translate(0 0)"/><path class="cls-31" d="M371,238.8a9.31,9.31,0,0,1,.15,1.59" transform="translate(0 0)"/><path class="cls-31" d="M381.5,240.05c.08.77.15,1.55.23,2.33" transform="translate(0 0)"/><path class="cls-31" d="M374.71,249.68a18.72,18.72,0,0,0-2.26-1.69" transform="translate(0 0)"/><path class="cls-31" d="M369.6,244.23c.09.45.18.91.28,1.37" transform="translate(0 0)"/><path class="cls-31" d="M356,239.5c-1-.11-1.9-.24-2.85-.38" transform="translate(0 0)"/><path class="cls-31" d="M355.22,247.41l1.64,1.42" transform="translate(0 0)"/><path class="cls-32" d="M587.37,156.56a91.34,91.34,0,0,0,10.57,21.15l5,7.41c.87,1.29,4.19,4.77,4.19,6.26,2,3,4.14,6.63,3,10.09a7.61,7.61,0,0,1-5.74,4.75,14.09,14.09,0,0,1-7.66-.85c-7.13-2.59-12.77-8.37-16.54-15a54.44,54.44,0,0,1-5.88-16A99,99,0,0,1,572,157c-.12-4.62.39-9.26-.12-13.86a32.46,32.46,0,0,0-.75-5.69,53,53,0,0,0-2.63-5.68,32,32,0,0,1-2.6-11.2,5.84,5.84,0,0,1,.56-3.36,2.3,2.3,0,0,1,3-1,3.46,3.46,0,0,1,1.09,1.38c.7,1.32,1.23,2.72,2,4,.47.85,1,3.72,2.26,3.77,1.15,0,.53-3.2.5-4.07a1.56,1.56,0,0,1,.11-.83c.92-1.72,2.77,1.85,3.12,2.45a28.6,28.6,0,0,1,2.12,4.6,48.82,48.82,0,0,1,2.29,9.91A100.94,100.94,0,0,0,587.37,156.56Z" transform="translate(0 0)"/><path class="cls-33" d="M567.05,116.28a28.43,28.43,0,0,0,1.55,11.35" transform="translate(0 0)"/><path class="cls-33" d="M568.54,115.91c.53,4,1.11,8.21,3.27,11.66" transform="translate(0 0)"/><path class="cls-33" d="M574.22,124.8a9,9,0,0,0,1.46,2.56" transform="translate(0 0)"/><path class="cls-34" d="M581.13,418.11c-.19.12-.39.24-.59.34-1.87,1-3.88.09-5.79-.49l-2.06-.62A2.44,2.44,0,0,1,572,417a2,2,0,0,1-.52-.65c-1-1.8-.83-3.87-.72-5.87A109.72,109.72,0,0,1,572.58,397a57.79,57.79,0,0,1,2-8.54,19.44,19.44,0,0,1,4.38-7.52,6,6,0,0,1,2.35-1.6,7.46,7.46,0,0,1,4.27.32,7.79,7.79,0,0,1,2,.76,5.63,5.63,0,0,1,1.88,2.14c1.83,3.31,1.6,7.35,1,11.09a133,133,0,0,1-4.25,16.87,21.54,21.54,0,0,1-1.28,3.5A10.55,10.55,0,0,1,581.13,418.11Z" transform="translate(0 0)"/><path class="cls-35" d="M624.27,345.88c.76,1.1,1.48,2.22,2.17,3.35,1.38,2.29,3.63,5.17,3,8a6.38,6.38,0,0,1-2.88,3.67c-1.78,1.2-5.49,2.82-7.61,1.87a9.13,9.13,0,0,1-2.72-2.2L611.86,356c-2.24-2.36-4.53-4.8-6.66-7.28-1.57-1.82-2.84-4.1-2.71-6.5a7.7,7.7,0,0,1,2.44-5,8.45,8.45,0,0,1,5.4-2.49c3.94-.18,7.28,2.81,9.84,5.82A66.46,66.46,0,0,1,624.27,345.88Z" transform="translate(0 0)"/><path d="M610.76,382.4,611,382a55.8,55.8,0,0,0,3.63-7.8c.8-2.12.79-4.15,1.06-6.39.21-1.83-.05-4,.34-5.73s2.18-2.05,3.63-3c.84-.54,9.12-7.22,8.55-7.81l7.09,7.26a2.76,2.76,0,0,1,0,3.94A99.74,99.74,0,0,0,622.8,377.2c-1.34,1.89-11.37,16.75-14.33,13.37a1.77,1.77,0,0,1-.32-1.13C608.14,386.91,609.5,384.62,610.76,382.4Z" transform="translate(0 0)"/><path d="M543.18,422.09q2.87-.91,5.68-1.95a120.57,120.57,0,0,0,18.4-8.66,8.25,8.25,0,0,0,3.14-2.69c4.46,3.26,10,3.91,15.46,3.28.13,3.35.45,6.63.54,10a10.27,10.27,0,0,1-.08,2,1.87,1.87,0,0,1-.45,1.06c-1.65,1.66-6.63,1.88-8.66,1.85-3.7-.05-8.21-.35-11.9-.19a138.4,138.4,0,0,1-21.64-.49c-1.31-.15-3-.7-3-2S542.05,422.44,543.18,422.09Z" transform="translate(0 0)"/><path class="cls-36" d="M569.83,295.88c.13-.88-5.94-8.88-5.9-9.78.86-17.13,51.49-11.46,63-12.27,3.91-.27,7.94-.32,11.62,1,6.66,2.43,13.92,11.21,13.72,18.56-.2,7.13-5.07,14.54-12.76,14.77H639l-34.43.18c-5.45,0-10.88.59-16.34.63-4.28,0-9.65.83-13.45-1.62A11.61,11.61,0,0,1,569.83,295.88Z" transform="translate(0 0)"/><path class="cls-37" d="M566.82,280.48a18.87,18.87,0,0,1,4.81-2c4.29-1.33,9.07-2.64,13.14-.74,3.46,1.6,5.39,5,7.49,8,2.55,3.63,5.65,6.79,8.35,10.34,2.26,3,4.45,6.08,6.76,9.25a261.79,261.79,0,0,1,17.38,26.93c-7.44,6.65-14.19,14-21.64,20.67-3.45-5.5-7-10.93-10.67-16.28-4.86-7-10.64-13.11-16.08-19.64-4.48-5.37-8.75-11.24-11.13-17.89C563.43,294.07,561.49,284,566.82,280.48Z" transform="translate(0 0)"/><path class="cls-38" d="M597.17,318.23c3.19-4.05,26.46-26.9,31.78-34.79,3.66-5.42,4.51-12.91,6.08-19.18.72-1.19,2.32-1.4,3.7-1.48q13.63-.78,27.3-.46a6.49,6.49,0,0,1,3,.57,6.24,6.24,0,0,1,2.29,2.94c4.74,9.85,12.11,26.86,3.16,36.43a30.37,30.37,0,0,1-7.09,5.08,365.36,365.36,0,0,0-49.82,35.21c-3.4,2.86-6.82,5.82-10.88,7.62-3.63,1.61-8.08,2.14-11.43,0C584,343,588.3,329.45,597.17,318.23Z" transform="translate(0 0)"/><path class="cls-39" d="M565.48,400a1.91,1.91,0,0,1-1.29-2.33c7.8-29,15.72-54.65,33-79.4,5.05-7.25,11.56-4,20.58-3.36,1.72.12,3.58.5,4.71,1.8,1.38,1.57,1.27,3.75,1.5,5.69a9.52,9.52,0,0,1-.71,4.8,68.35,68.35,0,0,0-3,12.78,1.52,1.52,0,0,1-.22.73,1.81,1.81,0,0,1-.47.4,8,8,0,0,0-2.12,2.72,90,90,0,0,0-5.33,12.69q-2.48,6.64-4.81,13.32c-4.35,12.47-8.34,25.07-12.07,37.74a1.2,1.2,0,0,1-1.49.82Z" transform="translate(0 0)"/><path class="cls-33" d="M638.81,325.79q4.2-2.87,8.58-5.45" transform="translate(0 0)"/><path class="cls-33" d="M612.13,356.48a63.86,63.86,0,0,1,5.14-11.67c2.81-5.18,7.85-7.63,12.19-11.3" transform="translate(0 0)"/><path class="cls-40" d="M667,203.24c-4.69-4.34-11.37-6.78-17.39-8.59a57.57,57.57,0,0,0-9.26-2.05,14.79,14.79,0,0,0-5-.07c-7,1.28-12.82,3.07-19.54-.73-5.61-3.18-9.3-8.78-13.82-13.42l0,0c-7.24,5-14.53,9.91-21.64,15.08,5.91,10.22,16.81,17.9,25.39,25.61a34.89,34.89,0,0,1,7.25,8.24c3.49,6.06,2.64,12.75,4,19.29,1.44,6.77,1.29,13.41.74,20.35-.18,2.3-.44,4.6-.78,6.88a.59.59,0,0,0,.06.47.6.6,0,0,0,.4.15c1.15.12,2.66.81,3.71.81l9.39,3.07c3.25,1.06,6.5,2.12,9.82,2.93s6.81,1.38,10.19,2.13c7.51,1.68,13.45,6,20.53,8.94,3.64,1.49,7.29,2,11,.19q.65-12.92.81-25.86C683.08,245.65,683.83,218.85,667,203.24Z" transform="translate(0 0)"/><path class="cls-33" d="M588.1,333.35c2-6.76,6.74-12.33,11.48-17.56s9.85-10.47,14.79-15.69c3.81-4,8.64-6.82,12.41-10.82a31,31,0,0,1,3.58-3.75c1.93-1.45,4.51-2,6-3.94" transform="translate(0 0)"/><path class="cls-41" d="M637.06,206.58a11.5,11.5,0,0,0,1.42-.4,12.75,12.75,0,0,0,7.52-8c.53-1.57.64-3.59-.68-4.57a13.11,13.11,0,0,0-2.51-1,6,6,0,0,1-2.58-2.86,12,12,0,0,1-.78-1.81,3.48,3.48,0,0,0-1.22-1.4,5,5,0,0,0-1.1-.77,4.78,4.78,0,0,0-1.36-.35,19.09,19.09,0,0,0-12,2.27,2.81,2.81,0,0,0-.65.48,1.66,1.66,0,0,0-.28,1.42,4.22,4.22,0,0,0,.61,1.35c1.34,2.17,3,4.46,2.82,7.14a12.6,12.6,0,0,0-.16,2.37,5.16,5.16,0,0,0,.64,1.81,8.73,8.73,0,0,0,1.69,2.26,9.09,9.09,0,0,0,2.42,1.37A9.86,9.86,0,0,0,637.06,206.58Z" transform="translate(0 0)"/><path class="cls-42" d="M633.91,193.25a12,12,0,0,0,7.06-9.9l.77-7.62a8.84,8.84,0,0,0-7.9-9.68h0c-4.12-.41-10.09-2.43-13,1.56a12.82,12.82,0,0,0-1.89,5c-.83,4.29-1.71,10.74.18,14.83A11.39,11.39,0,0,0,633.91,193.25Z" transform="translate(0 0)"/><path class="cls-4" d="M632.24,173.33a7.74,7.74,0,0,1,1.15-1.28c.8,3.17,1.52,6.36,2.36,9.52a37.66,37.66,0,0,0,2.62,6.57,11.15,11.15,0,0,0,3.46,4.54c1.82,1.22,4.12,1.41,6.31,1.57a12.9,12.9,0,0,0,3.62-.08c2.08-.44,4.54-2,3.49-4.44-.31-.71-.81-1.33-1.19-2-1-1.72-1.22-3.76-1.73-5.68-.69-2.59-1.92-5-2.85-7.52-.87-2.36-1.29-5.44-2.86-7.45a14.5,14.5,0,0,0-5-4,29.06,29.06,0,0,0-5.94-1.86,21.57,21.57,0,0,0-4.78-.77,22.31,22.31,0,0,0-4.94.71,13.35,13.35,0,0,0-4.28,1.48,11.05,11.05,0,0,0-2.49,2.34,31.48,31.48,0,0,0-3.19,4.66,2,2,0,0,0-.31.84c-.14,2.43,6.64,3.19,8.19,3.42,2.53.39,5.07.61,7.61.82A8.06,8.06,0,0,1,632.24,173.33Z" transform="translate(0 0)"/><path class="cls-43" d="M633.8,182.68c.54,1.56,1.5,3.07,3.66,2.31,3.65-1.28,3.56-6.05-.38-7.41a3.31,3.31,0,0,0-2.38,0,2.3,2.3,0,0,0-.65.5,3.45,3.45,0,0,0-.63,3.31C633.52,181.79,633.64,182.24,633.8,182.68Z" transform="translate(0 0)"/><path class="cls-33" d="M616.46,247c.19-5.22-2-20.85-1.58-26.07" transform="translate(0 0)"/><path class="cls-33" d="M654.73,220.57A92.51,92.51,0,0,0,660,241.42" transform="translate(0 0)"/><path class="cls-33" d="M638.13,180.34a2.4,2.4,0,0,0-4.24,1.88" transform="translate(0 0)"/><path class="cls-13" d="M616.7,241.17a10.87,10.87,0,0,0-4.9-6.15c-1.27-.74-3.11-1.11-4,0a3.16,3.16,0,0,0-.57,1.42,3.72,3.72,0,0,0,.23,2.49,1.51,1.51,0,0,0,2.89-.84,3.69,3.69,0,0,0-.77-1.71,9.62,9.62,0,0,0-2.39-2.33,3.64,3.64,0,0,0-3.44-.68,3.84,3.84,0,0,0-1.79,3,3.41,3.41,0,0,0,.33,2.52,1.43,1.43,0,0,0,2.22.21c.42-.61.09-1.45-.26-2.11a7.29,7.29,0,0,0-2.43-2.94,2.81,2.81,0,0,0-3.53.32,3.56,3.56,0,0,0-.67,2c-.12,1.46.23,3.23,1.59,3.76a.89.89,0,0,0,.87,0,1.07,1.07,0,0,0,.27-1,10.31,10.31,0,0,0-.54-2.58c-.54-1.54-1.73-3.13-3.36-3.12a2.49,2.49,0,0,0-2.36,1.88,2.52,2.52,0,0,0,1.28,2.74,3.68,3.68,0,0,0-2.08-5.06,1.88,1.88,0,0,0-1.4,0,2,2,0,0,0-.89,1.13,4.56,4.56,0,0,0-.24,2.53,1.69,1.69,0,0,0,.53,1,.75.75,0,0,0,1-.07,1,1,0,0,0,.13-.53,4.61,4.61,0,0,0-1.13-3.25,2.14,2.14,0,0,0-.95-.68c-1.11-.32-2.13.82-2.41,1.94-.72,2.91,1.4,5.84,3.94,7.43a5.84,5.84,0,0,0,2.54,1,2.77,2.77,0,0,0,2.45-.94,2.91,2.91,0,0,0,.12-3,7.46,7.46,0,0,0-2-2.32,9.4,9.4,0,0,0-4.41-2.45c-1.68-.28-3.65.51-4.18,2.12s.52,3.35,1.71,4.59a16.68,16.68,0,0,0,4.07,3.1" transform="translate(0 0)"/><path class="cls-28" d="M583.57,237.83a20.29,20.29,0,0,0,40,0Z" transform="translate(0 0)"/><rect class="cls-28" x="594.58" y="251.06" width="17.98" height="6.92"/><line class="cls-31" x1="594.12" y1="253.42" x2="613.09" y2="253.42"/><line class="cls-31" x1="594.12" y1="255.87" x2="613.09" y2="255.87"/><path class="cls-31" d="M619.77,241.64l-1.37,1" transform="translate(0 0)"/><path class="cls-31" d="M592.35,243.09a7.15,7.15,0,0,1,2.31,1.19" transform="translate(0 0)"/><path class="cls-31" d="M604.5,240a16.33,16.33,0,0,1,.19,2.42" transform="translate(0 0)"/><path class="cls-31" d="M602.14,249.46a25.74,25.74,0,0,1,2.91-.11" transform="translate(0 0)"/><path class="cls-31" d="M610.68,241.91c.39.72.75,1.46,1.08,2.21" transform="translate(0 0)"/><path class="cls-31" d="M605.9,245.42l2.53.66" transform="translate(0 0)"/><path class="cls-31" d="M598.6,238.8a8.4,8.4,0,0,0-.15,1.59" transform="translate(0 0)"/><path class="cls-31" d="M588.12,240.05c-.08.77-.15,1.55-.23,2.33" transform="translate(0 0)"/><path class="cls-31" d="M594.91,249.68a18.72,18.72,0,0,1,2.26-1.69" transform="translate(0 0)"/><path class="cls-31" d="M600,244.23c-.09.45-.18.91-.28,1.37" transform="translate(0 0)"/><path class="cls-31" d="M613.58,239.5c.95-.11,1.9-.24,2.85-.38" transform="translate(0 0)"/><path class="cls-31" d="M614.4,247.41l-1.64,1.42" transform="translate(0 0)"/><path class="cls-44" d="M616.59,248.64l.43,0c.93-.09,1.84-.1,2.77-.21s1.93-.24,2.9-.33c2.43-.23,4.88-.38,7.32-.64s4.44-.93,6.7-1.32a141.43,141.43,0,0,0,14.91-3.63l3.55-1c4.91-1.4,9.93-2.75,15-2.57a11,11,0,0,1,8.75,4.34c2.74,4,4.07,11.17-.55,14.35-1.66,1.15-3.83,1.1-5.84,1q-2.73-.12-5.46-.18c-5.75-.13-11.5-.17-17.24-.18q-9.55,0-19.11,0-7.74,0-15.46.15l-4.64.07-1.24,0c-.7,0-1.4.17-2.1.2-.36,0-.7,0-1,0s-.69.06-.91-.27a.65.65,0,0,1,0-.77.84.84,0,0,1-.61-.94,2.48,2.48,0,0,1,.52-1.1,1,1,0,0,1-.53-1.13c.14-.75,1-1.33,1.52-1.75a17.41,17.41,0,0,1,5.25-2.93A33.56,33.56,0,0,1,616.59,248.64Z" transform="translate(0 0)"/><path class="cls-33" d="M606,258.3c1.25-.74,7.78-1.38,7.78-1.38" transform="translate(0 0)"/><path class="cls-33" d="M613.81,254.52c-1.15,0-6.58,1.48-8.24,2.93" transform="translate(0 0)"/><path class="cls-33" d="M605.45,255.49a16.9,16.9,0,0,1,8-3.37" transform="translate(0 0)"/><path class="cls-33" d="M608.43,306.53c-4-4.9-11.58-16.42-16.17-20.81" transform="translate(0 0)"/><path class="cls-33" d="M623.42,178.06a4.88,4.88,0,0,1-1,4.19,1.77,1.77,0,0,0-.5,1.26,1.18,1.18,0,0,0,1.65.81" transform="translate(0 0)"/><path class="cls-2" d="M627.07,186.24a3.1,3.1,0,0,1-1.11,1.93,3.23,3.23,0,0,1-2.34.65,3.48,3.48,0,0,1-2.66-2.26" transform="translate(0 0)"/><path class="cls-4" d="M627.45,179.69a.62.62,0,1,0,.62-.62A.62.62,0,0,0,627.45,179.69Z" transform="translate(0 0)"/><path class="cls-4" d="M618.79,178.83a.62.62,0,1,0,1.24,0,.62.62,0,0,0-1.24,0Z" transform="translate(0 0)"/><path class="cls-33" d="M625,193.13a9.63,9.63,0,0,0,5,.14,15.61,15.61,0,0,0,4.64-1.94" transform="translate(0 0)"/><path class="cls-33" d="M578.38,180.93a4.8,4.8,0,0,0,1,2.8" transform="translate(0 0)"/><line class="cls-45" x1="369.46" y1="258.59" x2="369.24" y2="426.93"/><line class="cls-45" x1="645.07" y1="258.59" x2="644.85" y2="426.93"/><line class="cls-45" x1="593.28" y1="258.59" x2="593.07" y2="426.93"/><line class="cls-46" x1="417.58" y1="258.59" x2="417.37" y2="426.93"/><rect class="cls-47" x="341.81" y="257.79" width="324.99" height="4.61"/><rect class="cls-47" x="367.87" y="259.04" width="276.98" height="10.53"/><line class="cls-48" x1="646.87" y1="263.13" x2="367.87" y2="263.13"/><path class="cls-48" d="M404.08,257.94l-27.35,0" transform="translate(0 0)"/><path class="cls-48" d="M469.1,257.93H431.59" transform="translate(0 0)"/><path class="cls-48" d="M494.6,257.93h-3.1" transform="translate(0 0)"/><path class="cls-48" d="M528.69,257.94H512.57" transform="translate(0 0)"/><path class="cls-48" d="M584.27,258H561.15" transform="translate(0 0)"/><path class="cls-48" d="M623.16,258H607.48" transform="translate(0 0)"/><path class="cls-48" d="M642.63,258H632" transform="translate(0 0)"/><path class="cls-18" d="M611.9,427q33.57,0,67.12,0" transform="translate(0 0)"/><path class="cls-18" d="M576.27,426.93l21.9,0" transform="translate(0 0)"/><path class="cls-18" d="M469.36,427c28.09,0,56,0,83.88,0" transform="translate(0 0)"/><path class="cls-18" d="M305.84,427c49.73.44,98.73.44,149.12,0" transform="translate(0 0)"/><path class="cls-18" d="M61.89,426.93c76.68.48,153.68.48,230.2,0" transform="translate(0 0)"/><path class="cls-10" d="M228.48,129.85c-3.58-.44-8.22-1.22-11.65.25l-.29,1.66,1,0c-.23,0,.36,4,.42,4.29a15.94,15.94,0,0,0,2.81,6.53A10.81,10.81,0,0,0,231.63,147a8.52,8.52,0,0,0,4.21-2.27,14.18,14.18,0,0,0,2.78-4.19c.74-1.64.86-3.45,1.66-5.11l.49.21c.15-.76.31-1.52.46-2.28A56,56,0,0,0,228.48,129.85Z" transform="translate(0 0)"/><path class="cls-49" d="M309.68,306a11.66,11.66,0,0,0,1.32-.67c-2.07-3.55-4.2-7.35-4.1-11.46s3.42-8.43,7.51-8a10.13,10.13,0,0,1,4.73,2.22A50.38,50.38,0,0,1,339.08,322c.48,3.76.5,7.7-.95,11.19-8.13,19.56-41.25,5.24-52.67-2.84-11.25-8.2-21.29-17.11-32.79-25-2.51-1.71-5.32-4-5-7,.23-2.65,2.92-4.53,5.56-4.79s5.24.69,7.74,1.6C272.33,299.28,297.54,311.24,309.68,306Z" transform="translate(0 0)"/><path class="cls-50" d="M274.65,303.13a155.9,155.9,0,0,0-10.76,14.7,1.75,1.75,0,0,1-.75-.13,10.51,10.51,0,0,1-2.34-1.93c-3.11-2.73-7.61-6-9.67-9.68-1.39-2.48-1.13-6.34,1.66-7.73s6.38-.31,9.09.51Q268.32,300.82,274.65,303.13Z" transform="translate(0 0)"/><path d="M261.11,298.38c-.27-.11-4.35,7.61-4.73,8.34-1.27,2.4-3.08,3.72-4.75,5.73a61.75,61.75,0,0,0-5.78,8.62,13.33,13.33,0,0,1-2.74,3.79,3.94,3.94,0,0,1-4.36.67c-1.27-.76-1.74-2.37-1.89-3.85-.65-6.64,2.88-12.13,5.72-17.79,1.7-3.39,3.17-9.37,7.54-10.23a4.34,4.34,0,0,1,2.69.43C255.57,295.46,258.25,297.19,261.11,298.38Z" transform="translate(0 0)"/><path class="cls-51" d="M288.55,167.62c1.2-3.26,3.16-6.38,6.16-8.13,2.56-1.49,5.54-1.8,8.41-2.24a33.39,33.39,0,0,0,7.39-1.93c5.22-2,10.43-4.54,14.27-8.72,2.28-2.47,4.22-5.61,7.43-6.61,3.81-1.19,7.79,1.13,10.85,3.68,3.28,2.74,6.38,6.2,6.88,10.44a11.83,11.83,0,0,1-.16,3.61c-2.47,12.9-18.26,19.08-28.3,24.73a38.8,38.8,0,0,0-7.4,5.1c-2.13,2-2.93,5.29-4.8,6.95a3.89,3.89,0,0,1-2.68.71C292.55,195.06,283.88,180.29,288.55,167.62Z" transform="translate(0 0)"/><path class="cls-52" d="M261.71,367.92a440.93,440.93,0,0,1-2-50.49c.14-7.6,2.72-22.53,13.34-20.94,9.85,1.47,14.8,18.18,16.05,26.22,1.76,11.31.16,22.85-1.44,34.19-2.6,18.39-5.77,36.75-7.08,55.28a2,2,0,0,1-.37,1.21,1.89,1.89,0,0,1-1.13.47,63.76,63.76,0,0,1-8.5.87,2.71,2.71,0,0,1-1.52-.24,2.79,2.79,0,0,1-1-1.69c-3.18-10-3.36-20-4.7-30.32Q262.42,375.22,261.71,367.92Z" transform="translate(0 0)"/><path class="cls-28" d="M283.8,412.91c0,2.8,0,5.75,0,6.22a1.12,1.12,0,0,1-1.32,1.34l-8.67.74c-2.69.22-5.19,0-6.61-2.42-.51-.86-2.35-10.4-1.8-10.38a110.78,110.78,0,0,0,18.84-.83C283.94,407.58,283.83,410.17,283.8,412.91Z" transform="translate(0 0)"/><path class="cls-53" d="M274.87,238.89c0-5.34,2-10.45,7.28-13.23,5-2.61,11.14-1.44,16.16,1.06a41.46,41.46,0,0,1,15.34,13.87,161.38,161.38,0,0,1,21,44.29c4.64,15.58,10.11,32.4,7.29,48.85-7.76.87-15.63-1.39-22.44-5.2-5.85-3.26-10.76-7.64-15.69-12.11-4.72-4.29-3.64-6.8-6.11-12.54-7.88-18.4-14.65-37.38-21.24-56.28A27,27,0,0,1,274.87,238.89Z" transform="translate(0 0)"/><g class="cls-54"><path class="cls-10" d="M337.61,316.44c-5.79-27.57-28.86-84-35.31-96.79,12.48,41.35,38.06,77.56,34.93,122.43C339.35,335.86,337.69,324.48,337.61,316.44Z" transform="translate(0 0)"/><path class="cls-10" d="M327.35,313.22c-3.06-35.2-21.9-66.77-37.43-98.86,7.24,22.74,45.81,82,37.11,125.63C331.28,337,328.26,320.73,327.35,313.22Z" transform="translate(0 0)"/><path class="cls-10" d="M313.34,314.41C311.53,280.81,295.27,246,287.1,216c.24,1.79.6,4.51,1.14,8.54-.09-1.42-5.32-11-2.13-2.46,8.56,34.42,15.81,73.58,21.13,107.12-1.78-41.23-14.47-65.78-17-97.31,14.76,32.68,23,73.29,23.46,106.81A180.77,180.77,0,0,0,313.34,314.41Z" transform="translate(0 0)"/></g><path class="cls-55" d="M295,315.17q-.43,8.64-.88,17.27c-2,.46-4.06.83-6.1,1.17-10.5,1.74-21,3.59-31.64,3.72-.69,0-1.37,0-2,0-2.44-28.39-1.78-56.58.74-85.23.71-8.1,3.93-18.2,8.44-25a10.75,10.75,0,0,1,4.24-4.17c5.26-2.37,16.41-.87,21.64,1.78,6.1,3.09,1.17,10.62,2.08,16.75,2.53,17.2,2.88,38.1,4.51,54.51Z" transform="translate(0 0)"/><path class="cls-56" d="M280.66,164.54a6.19,6.19,0,0,0,2.12,3.15,21,21,0,0,0,9.64,4.2c2.38.19,4.92-.44,6.36-2,2.16-2.43-.79-5.62-2.16-7.64-1.94-2.86-1.74-7.34-2.08-10.73a.83.83,0,0,1,.09-.6.87.87,0,0,1,.51-.26c7.7-2.12,5.2-12.81,3.17-18a18.85,18.85,0,0,0-2.33-4.53,7.85,7.85,0,0,0-4-3c-3.38-1-6.56.9-9.29,2.61a10.59,10.59,0,0,0-5.17,8.24,18.22,18.22,0,0,0,.55,4.46c.57,2.79,1.13,5.59,1.56,8.41s.62,5.54.77,8.32a1.44,1.44,0,0,1-.43,1.15c-.26.2-.67.32-.67.65a1.13,1.13,0,0,0,0,.18c.27.92.53,1.85.8,2.78S280.38,163.66,280.66,164.54Z" transform="translate(0 0)"/><g class="cls-57"><path class="cls-10" d="M260.42,253.83q.65-15,1.61-30.05c0-.65-1-.64-1,0q-1.71,26.76-2.44,53.57c-.49,17.88-.61,35.76-.48,53.64.07,10,.13,20.09-.42,30.12,0,.64,1,.64,1,0,.49-8.94.5-17.89.44-26.83s-.11-17.89-.05-26.83Q259.26,280.63,260.42,253.83Z" transform="translate(0 0)"/><path class="cls-10" d="M269.59,250.07q.74-15.06,2-30.08c0-.65-1-.64-1,0q-2.27,26.65-2.81,53.43t.62,53.5q.66,15.06,1.86,30.1c.05.63,1.05.64,1,0q-2.13-26.68-2.55-53.45T269.59,250.07Z" transform="translate(0 0)"/><path class="cls-10" d="M277.76,310.82q-.66-28.24,0-56.5.39-15.85,1.19-31.69c0-.65-1-.64-1,0q-1.44,28.35-1.52,56.77-.09,28.25,1.17,56.48.7,15.86,1.83,31.66c.05.64,1.05.65,1,0Q278.43,339.22,277.76,310.82Z" transform="translate(0 0)"/><path class="cls-10" d="M285.18,303.19c-.47-17.44-1.46-34.87-1.62-52.31-.08-9.81.1-19.62.78-29.4.05-.64-.95-.64-1,0-1.22,17.49-.83,35-.2,52.53s1.5,34.84,1.23,52.28c-.15,9.78-.67,19.57-1.78,29.29-.07.64.93.64,1,0C285.57,338.19,285.65,320.66,285.18,303.19Z" transform="translate(0 0)"/></g><path d="M282.43,144.25a14.06,14.06,0,0,1-2,2.57,1.35,1.35,0,0,1-.79.48,1.24,1.24,0,0,1-.92-.4,9,9,0,0,1-2-3.26c-.52-1.1-1.2-2.11-1.76-3.21-1.31-2.62-2.5-5.43-2.43-8.41,0-1.23.35-3.49,1.57-4.19a1.71,1.71,0,0,1,2.49,1.25c-.21-2.72-.23-5.73,1.54-7.81a1.73,1.73,0,0,1,.77-.6,1.48,1.48,0,0,1,1.6.69,4.36,4.36,0,0,1,.55,1.77,29,29,0,0,0,1-3.33,5.79,5.79,0,0,1,1.73-3,2.41,2.41,0,0,1,4,1,6.5,6.5,0,0,1,.06,2.41,7.2,7.2,0,0,1,5.37-3.88c1.65-.29,3.66.09,4.42,1.58s-.2,3.46-1.17,5c1-.39,2.24-.71,2.9.1a2.13,2.13,0,0,1,0,2.24c-1.25,2.65-2.47,4.83-5.74,4.73a9.55,9.55,0,0,0-3.66.2c-1.69.62-2.64,2.36-3.45,4a4.75,4.75,0,0,0-4.69.15,3.91,3.91,0,0,0-1.63,4.28,3.34,3.34,0,0,0,3.84,2.25A14,14,0,0,1,282.43,144.25Z" transform="translate(0 0)"/><path class="cls-2" d="M299.11,141.26a3.44,3.44,0,0,1-1.09,3,2.94,2.94,0,0,1-2.76.74,3.3,3.3,0,0,1-2-1.82Z" transform="translate(0 0)"/><path class="cls-2" d="M309.07,231.49c-3.85.28-7.71.36-11.57.43-6.87.14-13.73.59-20.59,1a5.39,5.39,0,0,1-2-1.54,6.45,6.45,0,0,1-.91-2.2c-1.54-5.93-1.26-12-1.06-18,.42-12.7-2.11-25.73,1.37-38a15.59,15.59,0,0,1,2.37-5.23,11.13,11.13,0,0,1,6.42-3.93,17.71,17.71,0,0,0,4.81.47,31.61,31.61,0,0,0,6.49-.9c1.39-.37,2.71-1,4.1-1.41a4.71,4.71,0,0,1,2.21.63,6.68,6.68,0,0,1,2.45,3.57c5.61,14.85,1.51,31.63,4.74,47.16.7,3.34,1.73,6.62,2.18,10,.28,2.11.77,5.66-.55,7.51A4.41,4.41,0,0,1,309.07,231.49Z" transform="translate(0 0)"/><path class="cls-51" d="M322.54,217.29c-2.05-11.85-4.14-23.85-9.13-34.79-2.9-6.36-6.87-12.4-10.76-18.19a10,10,0,0,0-1.14-1.28c-.44-.47-.79-1-1.21-1.53a35,35,0,0,0-2.65-3.24l-.44.17c-.32.11-.64.22-.95.35l-.13.05-.17.07-.48.24-.08,0c-.1,1.25-.06,2.93-.19,3.46a19.61,19.61,0,0,1-1.34,3.86,6.39,6.39,0,0,0-.76,2.1,5.73,5.73,0,0,0,.2,1.79c.77,3.54,1.21,7.16,1.65,10.76q.89,5.35,1.66,10.73c0,.11,0,.23.07.34a24.79,24.79,0,0,1,.47,3.41l1.44,10.26c.89,6.26,1.78,12.51,2.78,18.75,1,6,1.7,12.13,2.63,18.18.65,4.27,1.37,8.56,1.8,12.87,7.72-.29,15.4-1.44,23.08-1.59Q325.71,235.69,322.54,217.29Z" transform="translate(0 0)"/><path class="cls-51" d="M256.78,185.63A33.36,33.36,0,0,1,263,171.52a44.46,44.46,0,0,1,5.32-5.91c1.7-1.61,2.31-4.19,4.09-5.62a6.52,6.52,0,0,1,3.45-1.08c.9-.11,1.78-.4,2.69-.53,1.45-.19,1.39.07,2,1.32,1,2.19,2.78,3.92,3.85,6.08,2.29,4.58.95,9.63.86,14.48-.08,4.27-.42,8.5-.48,12.8q-.22,14.7-.5,29.41c0,2.46-.09,4.91-.13,7.36q-.21,13-.36,26H272.63c-7.8,0-15.61-.09-23.41-.36A542.52,542.52,0,0,1,256.78,185.63Z" transform="translate(0 0)"/><path class="cls-51" d="M215.51,214.27c-4.72-1.77-7.08-5.62-4.33-11.84,2.13-4.82,5.62-8.92,9.33-12.67,12.31-12.45,30-24.36,46.87-29.22,4-1.14,8.24-2.24,12.35-1.07a14.53,14.53,0,0,1,2.37,4c.07.15.12.3.18.45a34.38,34.38,0,0,1-4.15,14.43,46.42,46.42,0,0,1-4.62,6.82c-4.66,5.77-10.21,12.06-16.19,16.5-7.2,7.2-24.7,13.84-34.83,13.74A20.88,20.88,0,0,1,215.51,214.27Z" transform="translate(0 0)"/><path class="cls-58" d="M223.8,157.48c-.23,5.33-3.43,10-5.42,14.76-4.17,10-10.6,24.7-8.43,35.75a8.5,8.5,0,0,0,2.94,5.32,11.42,11.42,0,0,0,4.94,1.66c7.29,1.24,9.37-5.42,12.61-10.86a55.13,55.13,0,0,0,7.39-21.62c.88-7.33.24-14.59-.84-21.82-.45-3.06-1-6.11-1.51-9.17-.39-2.23-1-4.13-3.11-5.38-.92-.56-1.82-.45-2.83-.78a6.25,6.25,0,0,1-4-4.4,16.59,16.59,0,0,0-.69-2.82,6.7,6.7,0,0,0-3-2.62,5.39,5.39,0,0,0-3.62-1.05c-1.65.32-2.6,2.06-3,3.69a12.84,12.84,0,0,0,4.18,12.6,35.76,35.76,0,0,1,3.23,2.46C223.94,154.47,223.88,155.82,223.8,157.48Z" transform="translate(0 0)"/><path class="cls-59" d="M320.87,99.18a28,28,0,0,0-13.55-6.73c-1.92-.35-4.06-.66-5.68.42A1.25,1.25,0,0,0,302,94c-.63-.08-.95.73-1,1.35-.05.39-.11.77-.16,1.15a4.29,4.29,0,0,0,.23,2.68,4.46,4.46,0,0,0,1,1.07c3.57,3,7.41,6.14,12,6.77.31,0,1.13,5.75,1.22,6.25.45,2.55.9,5.1,1.38,7.64.94,5.09,2,10.16,3.41,15.13,2.09,7.33,4.92,15.84,10.23,21.51,4.22,4.52,13.18,7.68,17.83,1.8,3.25-4.1,1.36-10.26-.33-14.56a125.23,125.23,0,0,0-7.63-15.18c-5.69-10.15-10.25-22.08-18.9-30.07Z" transform="translate(0 0)"/><path d="M266,426.43h39.68a4.49,4.49,0,0,0-1.56-2.79c-1.73-1.8-4.41-2.2-6.87-2.61-4-.67-8-1.68-11.17-4.11a5.63,5.63,0,0,1-1.42-1.46c-4.11.34-8.23.53-12.36.46-2.21,0-4.43-.15-6.64-.37-.06,1.29-.12,2.58-.19,3.88-.09,1.63-1.08,4.6-.24,6.1A3.32,3.32,0,0,0,266,426.43Z" transform="translate(0 0)"/><path class="cls-60" d="M295.68,300.92q-2-25.73-2.65-51.51" transform="translate(0 0)"/><path class="cls-60" d="M348,154.55a3,3,0,0,1-2.32,2.88" transform="translate(0 0)"/><path class="cls-60" d="M217.8,210.56a2.64,2.64,0,0,1-3.58-3.33" transform="translate(0 0)"/><path class="cls-18" d="M253.08,205.56a20.93,20.93,0,0,0,4-9.14" transform="translate(0 0)"/><path class="cls-60" d="M315.71,188.54a43.64,43.64,0,0,0-4.11-11.73" transform="translate(0 0)"/><path class="cls-18" d="M281.59,136.14a3.2,3.2,0,0,1,4.73,1.46" transform="translate(0 0)"/><path class="cls-18" d="M218.14,134.6a13.24,13.24,0,0,0-1.41,7.21" transform="translate(0 0)"/><path class="cls-18" d="M220.25,135a34.33,34.33,0,0,0-1.08,7.33" transform="translate(0 0)"/><path class="cls-18" d="M222.5,136.17c-.06.77-.12,1.54-.19,2.31a11.8,11.8,0,0,0,0,2.91,3.78,3.78,0,0,0,1.45,2.44" transform="translate(0 0)"/><path class="cls-18" d="M239.28,135.37A54.62,54.62,0,0,0,219,131.76" transform="translate(0 0)"/><path class="cls-28" d="M228.54,140.78a1,1,0,0,0,0,2A1,1,0,0,0,228.54,140.78Z" transform="translate(0 0)"/><path class="cls-28" d="M229.51,136.65a1,1,0,0,0,0,2A1,1,0,0,0,229.51,136.65Z" transform="translate(0 0)"/><path class="cls-28" d="M234.36,140.78a1,1,0,0,0,0,2A1,1,0,0,0,234.36,140.78Z" transform="translate(0 0)"/><path class="cls-28" d="M236.61,137.81a1,1,0,0,0,0,2A1,1,0,0,0,236.61,137.81Z" transform="translate(0 0)"/><path class="cls-28" d="M225.44,134.15a1,1,0,0,0,0,2A1,1,0,0,0,225.44,134.15Z" transform="translate(0 0)"/><path class="cls-28" d="M231.86,143.83a1,1,0,0,0,0,2A1,1,0,0,0,231.86,143.83Z" transform="translate(0 0)"/><path class="cls-28" d="M233.39,135.17a1,1,0,0,0,0,2A1,1,0,0,0,233.39,135.17Z" transform="translate(0 0)"/><path class="cls-18" d="M294.6,150.86a3.24,3.24,0,0,1-1.41.22c-1.23-.13-2.07-1.25-3.08-2" transform="translate(0 0)"/><path d="M291.23,136a1,1,0,0,0,0,2A1,1,0,0,0,291.23,136Z" transform="translate(0 0)"/><path d="M298.46,133.3a1,1,0,0,0,0,2A1,1,0,0,0,298.46,133.3Z" transform="translate(0 0)"/><path class="cls-18" d="M296.87,131.84a1.7,1.7,0,0,0-1.18.7,1.52,1.52,0,0,0-.18,2.16,32.15,32.15,0,0,1,1.65,4.49.47.47,0,0,1,0,.4.51.51,0,0,1-.2.14l-1.21.57" transform="translate(0 0)"/><path class="cls-18" d="M314.15,107.33a.23.23,0,0,1,.07-.17l.77-1" transform="translate(0 0)"/><path class="cls-18" d="M302,94.07q3,.38,6,.87" transform="translate(0 0)"/><path class="cls-18" d="M301,96.1l6.27.68" transform="translate(0 0)"/><path class="cls-18" d="M300.69,97.76a35.92,35.92,0,0,1,6.67,2.34" transform="translate(0 0)"/><path class="cls-18" d="M349,158.58a9.56,9.56,0,0,1-6.7,4.34" transform="translate(0 0)"/><path class="cls-18" d="M336.47,161.61a1.64,1.64,0,0,1-1.85-1.13" transform="translate(0 0)"/><path class="cls-18" d="M220.13,215a13.83,13.83,0,0,0,7.45-5.39" transform="translate(0 0)"/><path class="cls-18" d="M230.32,204.76a24.67,24.67,0,0,1,1.81-4.46" transform="translate(0 0)"/><ellipse class="cls-4" cx="115.74" cy="305.67" rx="37.67" ry="13.01"/><ellipse class="cls-5" cx="116.68" cy="371.68" rx="28.13" ry="9.39"/><ellipse class="cls-5" cx="116.68" cy="339.41" rx="28.13" ry="9.39"/><line class="cls-6" x1="87.95" y1="309.26" x2="87.95" y2="427.2"/><line class="cls-6" x1="132.66" y1="308.92" x2="132.66" y2="427.2"/><line class="cls-6" x1="100.67" y1="307.54" x2="100.67" y2="427.2"/><line class="cls-6" x1="144.48" y1="307.54" x2="144.48" y2="427.2"/><path d="M161.55,360.05c-3.21,6.32-.41,11.43,3.27,16.71,1.36,2,4.86,5.4,5.3,7.67.82,4.19-5.13,4.11-7.55,3.22-4.49-1.65-8.11-5-11.6-8.28l-7.33-6.88c-1.95-1.83-4-4-4.12-6.65s1.75-4.77,3.47-6.69c2.44-2.73,5-5.37,7.23-8.29l1.67-2.24c2.78-3.7,7.5-4.64,10.46-2.08,2.55,2.21,2.88,6.49,1,10.1C162.73,357.83,162.11,359,161.55,360.05Z" transform="translate(0 0)"/><path d="M189.32,400.78a45,45,0,0,1-8.37-.07c-1.52-.17-2.91-.34-4-.36l-16.7-.33a3.05,3.05,0,0,1-2.7-3.24c0-9-2.37-18.24-3.24-27.2a18,18,0,0,1,.07-5.73,6.35,6.35,0,0,1,3.29-4.47c2.23-1,4.89-.13,6.93,1.21a16.34,16.34,0,0,1,6.11,7.62c1.34,3.38.8,6.69,1.42,10.14.88,4.82,3.11,9.37,7.93,11.07l15.09,5.33c1.18.41,3.3,1.47,3.6,2.87a1.64,1.64,0,0,1-.64,1.63,3.14,3.14,0,0,1-1.22.44A64.6,64.6,0,0,1,189.32,400.78Z" transform="translate(0 0)"/><path class="cls-40" d="M187.82,289.48l-.23-.21c-4.6-4.22-10.28-7-15.88-9.81l-15.23-7.52c-10.37-5.13-18.39-14.27-28.89-19.05-6.5-3-14.52-3.68-20.59.11a8.25,8.25,0,0,0-2.62,2.4,10.87,10.87,0,0,0-1.28,4c-.87,4.72-1.8,10-.29,14.66,1.14,3.53,4.69,6.2,7.41,8.59,7.24,6.36,16.62,9.55,25.6,12.58l22.24,7.51c2.93,1,6.16,2.23,7.52,5,1.23,2.54-1.54,6.76-2.56,9-1.61,3.51-1.77,6.22-2.29,9.94-.76,5.46-4,11.31-5.92,16.49-.66,1.83-2.43,4.8-.24,6.28a5,5,0,0,0,2.89.67,14.13,14.13,0,0,0,10.27-4.74,34.08,34.08,0,0,0,.81,10.65c.54,2.3,1.45,4.7,3.42,6,3.93,2.59,6.26-1.45,7.39-4.53q2.63-7.17,5.12-14.37,4.91-14.24,9.29-28.64a32.19,32.19,0,0,0,1.81-8.86C195.67,299.46,192.31,293.68,187.82,289.48Z" transform="translate(0 0)"/><path class="cls-40" d="M169.53,303.35C165,295.94,152.41,291.64,145,288c-3.9-1.9-7.86-3.69-11.69-5.74A60.3,60.3,0,0,1,119,271.39c-5.36-5.22-13.64-9.09-21.22-5.85-5.79,2.47-8.43,9.12-9.94,15.24-1.08,4.42-1.88,9-1.08,13.5,1.52,8.53,8.87,11.52,16.09,14.53a111.44,111.44,0,0,0,12.7,4.4c4.78,1.33,9.68,2.35,14.2,4.4,2.84,1.28,5.48,2.95,8.3,4.28,7.41,3.48,18.79,6,25.92.91C170.16,318.38,173.85,310.35,169.53,303.35Z" transform="translate(0 0)"/><path class="cls-40" d="M180.49,377.33a17.38,17.38,0,0,1-2.15.83c-2.55.8-5.25,1-7.75,1.82a8.14,8.14,0,0,1-7.41-1.64A15.09,15.09,0,0,1,157.37,368a23.23,23.23,0,0,1,.57,7.69,7.86,7.86,0,0,1-4.15,6.15,3.43,3.43,0,0,1-2.18.29c-3.14-.81-2.77-4.93-2.91-7.27-.3-5-.92-9.92-1.39-14.88-.63-6.67-.89-13.37-1.67-20-1.44-12.28-2.44-24.61-3.49-36.92-1.19-15.34,22.45-7.75,27,.76,5,9.41,4.13,20.24,4.67,30.51.16,3.09.67,6.05,1,9.07.39,3.35.35,6.64,1,10,1.37,6.78,3.77,13.31,5.24,20.07a5.9,5.9,0,0,1,.14,2.67A2.71,2.71,0,0,1,180.49,377.33Z" transform="translate(0 0)"/><path class="cls-61" d="M133.15,278.5q8.72,6.66,18.07,12.44c5.43,3.36,12.07,5.77,16.26,10.78,4.37,5.23,5.16,12.5,5.66,19.31s1.14,13.52,1.84,20.26c.33,3.22.56,6.67.9,10,.18,1.84,2.08,9.51,2.32,11.34" transform="translate(0 0)"/><path class="cls-61" d="M143.64,324c0-2.06,1.88-6,2.47-8" transform="translate(0 0)"/><path class="cls-61" d="M158.66,373.71A42.17,42.17,0,0,1,156.31,359" transform="translate(0 0)"/><path class="cls-61" d="M193.43,307.73a6.3,6.3,0,0,1-3.23,1.65" transform="translate(0 0)"/><path class="cls-62" d="M158.73,218.69a33.06,33.06,0,0,1-5.2-5c-3.08-3.7-5-8.65-4-13.36a7.9,7.9,0,0,1,2.75-4.81c2-1.54,4.82-1.56,7.37-1.33a79.79,79.79,0,0,1,22.2,5.72c6.66,2.62,13.83,5.36,19.54,9.74a14,14,0,0,1,3,3.12,10.18,10.18,0,0,1-.22,12.45,10,10,0,0,1-4,3.38c-2.49,1-5.35.32-7.91,0q-4.42-.53-8.81-1.38c-5.92-1.15-11.49-3.16-17.3-4.7A21.38,21.38,0,0,1,158.73,218.69Z" transform="translate(0 0)"/><path class="cls-63" d="M89.11,225.82c.66-7.1,1.13-13.35,4.17-19.82,2.31-4.93,5.62-9.73,10.62-12.23a52.41,52.41,0,0,1,24.44-5.71c5.77.13,11.26,1.88,16.86,2.95,4.72.91,9.94,2.41,12.73,6.65,2.35,3.56,2.32,8.12,2.22,12.38q-.56,22.44-1.1,44.87c-.11,4.38.31,8.75.2,13.12-.08,3.47-2.67,4.43-5.71,5.69-6.63,2.76-14,2.8-21.11,2.84-10.94.05-21.9.22-32.78-.87a21.5,21.5,0,0,1-8-1.93c-7.07-3.73-4.65-13.8-4.39-20.34Q87.85,239.61,89.11,225.82Z" transform="translate(0 0)"/><path class="cls-64" d="M129.33,193.57a7.5,7.5,0,0,1,.75-2.56,4.16,4.16,0,0,1,2.67-1.88l1.28,0c6.5.36,13,.9,19.46,1.67A149.85,149.85,0,0,1,176.37,196c0,2.82-7.48,29.68-8,29.45-8.12-3.49-23.31-7.73-31.43-11.22-3.57-1.53-7.23-3.4-8.51-7.32C127,202.49,128.64,197.94,129.33,193.57Z" transform="translate(0 0)"/><path d="M115.85,167.21c.05-.34.12-.68.19-1,1.32-6,6.46-13.23,13.44-12.43,4.42.51,9.12,1.71,12.21,5.16,1.59,1.78,4,3.79,3.72,6.44-.15,1.43-1.2,2.49-1.77,3.73-1.31,2.84-1.27,5.7-3.52,8.05a3,3,0,0,1-1.91,1.16,10.65,10.65,0,0,1-2.46-.06q-5.28-.6-10.49-1.58a20.43,20.43,0,0,1-5.39-1.6,7.46,7.46,0,0,1-3.8-4A8,8,0,0,1,115.85,167.21Z" transform="translate(0 0)"/><path class="cls-65" d="M135.88,187.88c0,.15,0,.3,0,.46a.42.42,0,0,0,0,.19.44.44,0,0,0,.2.15,5.32,5.32,0,0,0,1.47.39,2.39,2.39,0,0,1,.75.16s.08,0,.08.08,0,.07-.06.1c-.88.78-1.67,1.51-2.63,2.21a15.9,15.9,0,0,1-9.76,2,15.5,15.5,0,0,1-5.83-1.93,9.35,9.35,0,0,1-2.88-2.21.4.4,0,0,1-.09-.17c0-.16.18-.26.34-.29a7.38,7.38,0,0,0,1.7-.39,3.86,3.86,0,0,0,.94-.91,6,6,0,0,0,1.2-3.08c.26-1.8.21-3.65.55-5.44a6.45,6.45,0,0,1,.8-2.21,5.52,5.52,0,0,1,1.44-1.49,9.17,9.17,0,0,1,4.35-1.61,10.11,10.11,0,0,1,4.44.41,7.65,7.65,0,0,1,3.63,2.54c.83,1.1.53,3.11.43,4.41a36.18,36.18,0,0,1-.82,5.07A10.54,10.54,0,0,0,135.88,187.88Z" transform="translate(0 0)"/><g class="cls-66"><path class="cls-67" d="M134.27,185c1.3,0,3.73.76,1.94,2.34a3.73,3.73,0,0,1-1.53.72,20.7,20.7,0,0,1-8,.23,9.89,9.89,0,0,1-2.35-.53,10.55,10.55,0,0,1-3.23-2.46,6.26,6.26,0,0,1-2-3,2.31,2.31,0,0,1,1.25-2.55c1-.32,2.39.34,3.24.79a42.12,42.12,0,0,1,4.36,2.64c1.29.89,2.63,1.88,4.19,2C132.84,185.12,133.56,185,134.27,185Z" transform="translate(0 0)"/></g><path class="cls-68" d="M143.09,176.69a21.37,21.37,0,0,1-3.44,6.94,11.22,11.22,0,0,1-6.35,4.19c-4.63,1-9.44-2.06-11.63-6.26s-2.17-9.28-1.13-13.93a17.64,17.64,0,0,1,4.42-8.89,11.7,11.7,0,0,1,9.46-3.17c3.49.45,8,3.11,9.28,6.61C145.37,166.68,144.49,172.25,143.09,176.69Z" transform="translate(0 0)"/><path class="cls-69" d="M116.39,169.7a3.4,3.4,0,1,0,4.08-2.54A3.39,3.39,0,0,0,116.39,169.7Z" transform="translate(0 0)"/><path class="cls-18" d="M119.07,168.38a2,2,0,0,1,1.93,1.67,3.27,3.27,0,0,1-.8,2.59" transform="translate(0 0)"/><path d="M127.66,163.92a17,17,0,0,1-2.27,1.7,19.37,19.37,0,0,1-3,1.4,3.68,3.68,0,0,1-2.08.09,3.93,3.93,0,0,1-2.15-1.16c-2.58-2.95,3.89-6.29,5.65-7.85,5.63-5,12.86-4.73,18.12.86.82.87,1.53,1.82,2.27,2.76a15.32,15.32,0,0,1,1.81,2.72,5.1,5.1,0,0,1,.53,3.18c-.78,4-4.5-1.38-4-2a4,4,0,0,1-1,.89,1.39,1.39,0,0,1-1.25.14,1.85,1.85,0,0,1-.58-.46,5.86,5.86,0,0,1-1.45-3.83,14.79,14.79,0,0,1-2.72,2.64,3.37,3.37,0,0,1-1.88.82,2.59,2.59,0,0,1-2.34-2.1,7.43,7.43,0,0,1,.24-3.37l-3.14,2.81Z" transform="translate(0 0)"/><path class="cls-18" d="M128.22,168.34a4.68,4.68,0,0,1,4.64.07" transform="translate(0 0)"/><path class="cls-18" d="M143.5,171.75a3.54,3.54,0,0,0-3.8-1.37" transform="translate(0 0)"/><path class="cls-18" d="M136.58,171.12a11.4,11.4,0,0,0,.32,5.44c.12.42.25.91,0,1.24a.86.86,0,0,1-.77.24,2.17,2.17,0,0,1-.77-.32" transform="translate(0 0)"/><path class="cls-70" d="M131.76,181.42c-.47-.82-.74-1.76.36-1.73l1.88.06c.92,0,1.84.07,2.76.17.38,0,1.43,0,1.68.41a.14.14,0,0,1,0,.12c-.11.51-.21,1-.32,1.54a3.66,3.66,0,0,1-.81,1.95,2.47,2.47,0,0,1-2.7.33,6.55,6.55,0,0,1-2.19-1.84A8,8,0,0,1,131.76,181.42Z" transform="translate(0 0)"/><g class="cls-71"><path class="cls-2" d="M139.22,179.73a5.17,5.17,0,0,1-8.66-1.62" transform="translate(0 0)"/></g><path d="M131.05,170.46a1,1,0,0,1-.44,1.89A1,1,0,0,1,131.05,170.46Z" transform="translate(0 0)"/><path d="M141.71,172.52a1,1,0,0,1-.44,1.89A1,1,0,0,1,141.71,172.52Z" transform="translate(0 0)"/><path class="cls-72" d="M99.25,246.59a10.91,10.91,0,0,1-5.85,4.87c-3.19,1.25-6.69,1.39-10.11,1.51-2.54.1-5.5,0-7.06-2a7.36,7.36,0,0,1-1.2-3.23c-1.71-9-1.48-21.08,4-28.82a17.36,17.36,0,0,1,10.44-7.26c4.26-.85,9.07.6,11.62,4.12,3.22,4.43,2.21,10.53,1.06,15.89-.92,4.29-1.76,8.52-2.25,12.82A6.14,6.14,0,0,1,99.25,246.59Z" transform="translate(0 0)"/><path class="cls-73" d="M91.29,234.64c-2.85.3-5.76,1.41-8.53,2.15A26.88,26.88,0,0,0,78,238.43a28.5,28.5,0,0,0-3.63,1.69,40.13,40.13,0,0,0,.11,6.67,13.44,13.44,0,0,0,1.72,4.32,12,12,0,0,0,2,2.82c2.81,2.7,7.92,3,11.58,2.75a74.74,74.74,0,0,0,14.38-2.55c15.23-4,30.16-10.43,41.68-21.16,1.71-1.58,3.77-2.92,5-4.92s2.12-5.21.76-7.31a1.13,1.13,0,0,0-.64-.54,1.26,1.26,0,0,0-.73.16c-1.09.5-2.15,1.2-3.25,1.64s-2.32.45-3.44.84l-6.5,2.25a15.37,15.37,0,0,0-4.37,2.06c-1.42,1.1-2.26,2.88-4,3.36a41.19,41.19,0,0,1-6.75.91Z" transform="translate(0 0)"/><path class="cls-10" d="M156.22,210.58c-.24,10.22-6.89,18.86-16.16,20.15s-18-5.19-21.06-14.95Z" transform="translate(0 0)"/><path d="M118.93,216.38c.6,4.24,9.48,6.51,19.83,5.06s18.28-6.06,17.68-10.31-9.47-6.51-19.83-5.06S118.34,212.13,118.93,216.38Z" transform="translate(0 0)"/><g class="cls-74"><path class="cls-28" d="M135.93,209.52a10.7,10.7,0,0,0-2.16,1.56c-1.56,1.46-2.74,3.4-4.61,4.44-.71.39-1.5.65-2.18,1.09-4.1,2.72-.94,6.79,2.29,8.24a19.3,19.3,0,0,0,7.21,1.28c4.5.17,11,.23,14.1-3.66,4.32-5.41-.67-12.66-6.43-14.09A11.43,11.43,0,0,0,135.93,209.52Z" transform="translate(0 0)"/></g><path class="cls-75" d="M107.22,226.1c-.57,1.45-1.18,2.88-1.83,4.27l-16-3.08c-5-1-10.22-1.69-15.1-3.19a125.2,125.2,0,0,1,4.92-14.84c1.68-4.19,3.47-9.3,6.64-12.62a15.09,15.09,0,0,1,6.68-3.86c4.65-1.41,9.76-1.78,14.58-2.29.85-.09,8.43-1.35,8.65-.92a24.49,24.49,0,0,1,2.39,7,14.54,14.54,0,0,1-.68,6.17c-1.35,4.31-4.08,8-6,12.07C110,218.55,108.71,222.38,107.22,226.1Z" transform="translate(0 0)"/><path class="cls-18" d="M116.78,189.11c1.28,1.81,3.41,2.78,5.49,3.54a17.46,17.46,0,0,0,2.23.7,15.66,15.66,0,0,0,3.2.33,12.77,12.77,0,0,0,3.49-.33,15.22,15.22,0,0,0,2.53-1,12.63,12.63,0,0,0,5-3.26" transform="translate(0 0)"/><path class="cls-18" d="M102.27,229.65l2.1.5,2-7.28a16.23,16.23,0,0,1,.92-2.73,13.73,13.73,0,0,0,.86-1.92" transform="translate(0 0)"/><path class="cls-18" d="M77.68,249.81a4.25,4.25,0,0,0,2.92,3.12" transform="translate(0 0)"/><path class="cls-18" d="M196.33,212.93a2.38,2.38,0,0,1-1.65,2.86" transform="translate(0 0)"/><path class="cls-28" d="M146.84,194.72l-5.73-.71a2.53,2.53,0,0,0-1.92.26,1.88,1.88,0,0,0-.41,2,4.73,4.73,0,0,0,3,2.75,3.88,3.88,0,0,0,3.13-.06,11,11,0,0,0,3.21-1.78,2.73,2.73,0,0,0,.92-1.13C149.59,194.53,147.76,194.83,146.84,194.72Z" transform="translate(0 0)"/><path class="cls-76" d="M142.31,185.11l-.84,18.36a3.49,3.49,0,0,0-1.44,1.41,6.08,6.08,0,0,0-.5,4.45,4.32,4.32,0,0,0,1,2.07,1.92,1.92,0,0,0,1.63.58c1.47.23,2.49-1,3-2.29a7,7,0,0,0,.35-3.83,3.39,3.39,0,0,0-2.07-2.59q.4-9,.83-18A1,1,0,0,0,142.31,185.11Z" transform="translate(0 0)"/><path class="cls-77" d="M152.33,190a5.25,5.25,0,0,0-2.4-1c-2.64-.13-5.16,1-7.57,2a2.15,2.15,0,0,0-1.38,1.33,25.72,25.72,0,0,0-1.51,3.39,5.88,5.88,0,0,0-.37,3.36,1.36,1.36,0,0,0,1.36,1,1.92,1.92,0,0,0,.86-.47,7.27,7.27,0,0,0,.7,2.79,2.61,2.61,0,0,0,.83,1.05,1.27,1.27,0,0,0,1.27.13,1.38,1.38,0,0,0,.48-.48,2.38,2.38,0,0,0,.4-1.27,5.45,5.45,0,0,0,.29,1.14,1.31,1.31,0,0,0,1.35.93.94.94,0,0,0,.69-.29,1.12,1.12,0,0,0,.24-.65.92.92,0,0,0,1.37.29c.7-.56.3-1.38.41-2.16a3.82,3.82,0,0,1,1.7,1.38c.61.83,1.07,1.91,2,2.42a7.53,7.53,0,0,0,4.06.85c2.56-.21,4.63,2.4,6.5,3.88l7.34,5.85c4.58,3.65,9.2,7.32,14.36,10.09,2.23,1.19,4.16,2.23,6.7,1.91a16.13,16.13,0,0,0,7-2.44,11.33,11.33,0,0,0,5.06-7.41c1.11-6.67-4.79-9.68-10.07-11.63-7.83-2.89-15.85-5.22-23.88-7.49a51.36,51.36,0,0,1-10-3.56,59.31,59.31,0,0,1-5.31-3.29C154.1,191.3,153.24,190.59,152.33,190Z" transform="translate(0 0)"/><path class="cls-18" d="M145.11,202.22a20.58,20.58,0,0,1-.62-3.49,7.07,7.07,0,0,1,0-1.38c.21-1.84,1.62-3.27,3-4.56" transform="translate(0 0)"/><path class="cls-18" d="M147.43,203.1c-.1-.94-.2-1.88-.29-2.83a7.08,7.08,0,0,1,0-2c.26-1.56,1.48-2.76,2.63-3.84" transform="translate(0 0)"/><path class="cls-18" d="M149.32,202a14.65,14.65,0,0,1,.29-2.88,3.11,3.11,0,0,1,.68-1.56c.44-.44,1.08-.62,1.5-1.07.08-.09,0-.07.14-.1.12.85.28,1.7.48,2.54a6.91,6.91,0,0,0,.77,2.09,8.1,8.1,0,0,0,3,2.49" transform="translate(0 0)"/><path class="cls-18" d="M145,191.78a6.49,6.49,0,0,0-2.13,1.5,5.17,5.17,0,0,0-1.21,1.94,8.6,8.6,0,0,0-.32,2.59c0,.71,0,1.42,0,2.14" transform="translate(0 0)"/><path class="cls-18" d="M140.24,193.92a18.54,18.54,0,0,0-1.08,3.06" transform="translate(0 0)"/><path class="cls-18" d="M165.25,211.06a115.32,115.32,0,0,0,21.37,15.84" transform="translate(0 0)"/><path class="cls-18" d="M102.07,233.49c-5.14.18-10.28.58-15.39,1.2" transform="translate(0 0)"/><path class="cls-18" d="M152.41,222.92a13.71,13.71,0,0,1-6.95,6" transform="translate(0 0)"/><path class="cls-18" d="M144.3,229.69a16.49,16.49,0,0,1-7.83,1.17" transform="translate(0 0)"/><path class="cls-18" d="M121.84,221.78c8,4.16,27.9,2.41,33.43-5.32" transform="translate(0 0)"/><path class="cls-18" d="M135.86,212.83a3.11,3.11,0,0,0,.09,2.79" transform="translate(0 0)"/><path class="cls-18" d="M146.42,216.46a3.17,3.17,0,0,1-1.33,2.18,6.19,6.19,0,0,1-2.42,1" transform="translate(0 0)"/><path class="cls-18" d="M133.82,220.33l-3.43-1.54" transform="translate(0 0)"/><path class="cls-18" d="M142.86,215.07a3.1,3.1,0,0,0-3.24.4" transform="translate(0 0)"/><path class="cls-18" d="M146.14,211.13a19.59,19.59,0,0,1,2,2.29" transform="translate(0 0)"/><polygon class="cls-78" points="497.97 69.72 499.21 76.84 505.78 79.87 499.39 83.25 498.54 90.43 493.35 85.39 486.26 86.81 489.45 80.32 485.9 74.01 493.07 75.03 497.97 69.72"/><path class="cls-28" d="M520.72,119.11a2.55,2.55,0,1,1-2.55-2.55A2.55,2.55,0,0,1,520.72,119.11Z" transform="translate(0 0)"/><path class="cls-28" d="M555.79,361.12a2.55,2.55,0,1,1-2.55-2.54A2.54,2.54,0,0,1,555.79,361.12Z" transform="translate(0 0)"/><path class="cls-28" d="M386.5,186.15a2.54,2.54,0,1,1-2.54-2.54A2.54,2.54,0,0,1,386.5,186.15Z" transform="translate(0 0)"/><path class="cls-78" d="M512.68,82.17a4.19,4.19,0,1,1,8.37,0" transform="translate(0 0)"/><circle class="cls-28" cx="116.3" cy="115.91" r="3.2"/><path class="cls-28" d="M443.57,119.29a3.14,3.14,0,1,1-3.14-3.13A3.15,3.15,0,0,1,443.57,119.29Z" transform="translate(0 0)"/><path class="cls-28" d="M558.92,92.12A3.14,3.14,0,1,1,555.79,89,3.14,3.14,0,0,1,558.92,92.12Z" transform="translate(0 0)"/><path class="cls-78" d="M116.59,93.21a2.31,2.31,0,0,1,4.62,0" transform="translate(0 0)"/><path class="cls-78" d="M413.77,90.43a3.6,3.6,0,1,1,3.6,3.6" transform="translate(0 0)"/><path class="cls-78" d="M664.31,112.54a3.81,3.81,0,0,1,7.51-1.23" transform="translate(0 0)"/><polyline class="cls-78" points="642.73 107.59 637.23 113.23 636.1 105.43 629.04 101.94 636.11 98.46 637.24 90.67 642.74 96.31 650.5 94.98 646.83 101.95 650.49 108.93 646.06 108.16"/><polygon class="cls-78" points="652.33 131.2 648.74 128.9 644.81 130.55 645.89 126.42 643.1 123.19 647.36 122.94 649.57 119.29 651.12 123.27 655.28 124.24 651.98 126.95 652.33 131.2"/><polygon class="cls-78" points="396.55 139.98 398.45 143.83 402.69 144.45 399.62 147.44 400.35 151.67 396.55 149.67 392.75 151.67 393.48 147.44 390.4 144.45 394.65 143.83 396.55 139.98"/><polygon class="cls-78" points="142.43 107.55 145.24 113.24 151.51 114.15 146.97 118.58 148.04 124.83 142.43 121.88 136.82 124.83 137.89 118.58 133.35 114.15 139.62 113.24 142.43 107.55"/><polygon class="cls-78" points="256.7 78.66 251.71 82.64 252.15 89.01 246.83 85.49 240.91 87.88 242.61 81.73 238.5 76.84 244.88 76.56 248.26 71.14 250.5 77.12 256.7 78.66"/><path class="cls-28" d="M336.7,399a2.09,2.09,0,1,1-2.08-2.09A2.08,2.08,0,0,1,336.7,399Z" transform="translate(0 0)"/><path class="cls-28" d="M388.13,333.35a2.09,2.09,0,1,1-2.08-2.08A2.08,2.08,0,0,1,388.13,333.35Z" transform="translate(0 0)"/><path class="cls-28" d="M208.45,366.9a2.09,2.09,0,1,1-2.08-2.09A2.08,2.08,0,0,1,208.45,366.9Z" transform="translate(0 0)"/><path class="cls-28" d="M198.5,110.33a2.09,2.09,0,1,1-2.09-2.09A2.09,2.09,0,0,1,198.5,110.33Z" transform="translate(0 0)"/><path class="cls-28" d="M184.54,124.8a3.21,3.21,0,1,1-3.21-3.2A3.21,3.21,0,0,1,184.54,124.8Z" transform="translate(0 0)"/><path class="cls-28" d="M353.06,391.07a3.21,3.21,0,1,1-3.21-3.2A3.21,3.21,0,0,1,353.06,391.07Z" transform="translate(0 0)"/><path class="cls-28" d="M376.17,95.26a3.21,3.21,0,1,1-3.21-3.2A3.21,3.21,0,0,1,376.17,95.26Z" transform="translate(0 0)"/><path class="cls-28" d="M223.33,281.59a3.21,3.21,0,1,1-3.2-3.2A3.21,3.21,0,0,1,223.33,281.59Z" transform="translate(0 0)"/></g></svg>