<svg width="220" height="80" viewBox="0 0 220 80" fill="#662D91" xmlns="http://www.w3.org/2000/svg">
  <g clip-path="url(#clip0_1096_15859)">
    <path d="M36.6512 12L72 48.4383V68H55.5039V55.4704L29.8295 29.0045H24.4961V68H8V12H36.6512Z" fill="#662D91"/>
    <path d="M81.9804 68V42.5455H87.3622V63.5629H98.2748V68H81.9804ZM101.839 42.5455H108.476L115.486 59.6477H115.784L122.794 42.5455H129.431V68H124.211V51.4322H124L117.412 67.8757H113.858L107.27 51.37H107.059V68H101.839V42.5455ZM157.257 55.2727C157.257 58.0485 156.73 60.41 155.678 62.3572C154.634 64.3045 153.209 65.7918 151.402 66.8192C149.604 67.8384 147.583 68.348 145.337 68.348C143.075 68.348 141.045 67.8343 139.247 66.8068C137.449 65.7794 136.028 64.292 134.984 62.3448C133.94 60.3976 133.418 58.0402 133.418 55.2727C133.418 52.4969 133.94 50.1354 134.984 48.1882C136.028 46.241 137.449 44.7578 139.247 43.7386C141.045 42.7112 143.075 42.1974 145.337 42.1974C147.583 42.1974 149.604 42.7112 151.402 43.7386C153.209 44.7578 154.634 46.241 155.678 48.1882C156.73 50.1354 157.257 52.4969 157.257 55.2727ZM151.8 55.2727C151.8 53.4747 151.531 51.9583 150.992 50.7237C150.462 49.4891 149.712 48.5528 148.743 47.9148C147.773 47.2768 146.638 46.9577 145.337 46.9577C144.036 46.9577 142.901 47.2768 141.932 47.9148C140.962 48.5528 140.208 49.4891 139.67 50.7237C139.139 51.9583 138.874 53.4747 138.874 55.2727C138.874 57.0708 139.139 58.5871 139.67 59.8217C140.208 61.0563 140.962 61.9927 141.932 62.6307C142.901 63.2687 144.036 63.5877 145.337 63.5877C146.638 63.5877 147.773 63.2687 148.743 62.6307C149.712 61.9927 150.462 61.0563 150.992 59.8217C151.531 58.5871 151.8 57.0708 151.8 55.2727ZM182.534 42.5455V68H177.886L166.811 51.979H166.625V68H161.243V42.5455H165.966L176.953 58.554H177.177V42.5455H182.534ZM196.004 68H186.98V42.5455H196.078C198.639 42.5455 200.843 43.055 202.691 44.0742C204.538 45.0851 205.959 46.5393 206.954 48.4368C207.956 50.3343 208.458 52.6046 208.458 55.2479C208.458 57.8994 207.956 60.178 206.954 62.0838C205.959 63.9896 204.53 65.4521 202.666 66.4712C200.81 67.4904 198.589 68 196.004 68ZM192.362 63.3888H195.78C197.371 63.3888 198.709 63.1071 199.795 62.5437C200.888 61.9719 201.709 61.0895 202.256 59.8963C202.811 58.6948 203.088 57.1454 203.088 55.2479C203.088 53.367 202.811 51.8299 202.256 50.6367C201.709 49.4435 200.893 48.5652 199.807 48.0018C198.722 47.4383 197.383 47.1566 195.793 47.1566H192.362V63.3888Z" fill="#662D91"/>
  </g>
  <defs>
    <clipPath id="clip0_1096_15859">
      <rect width="220" height="80" fill="white"/>
    </clipPath>
  </defs>
</svg>
