<svg xmlns="http://www.w3.org/2000/svg" width="151" height="32" fill="none" viewBox="0 0 151 32"><path fill="#6E94E8" d="M26.095 32h-9.1v-9.117c0-6.017 5.014-10.94 11.143-10.94h9.1v9.117c0 6.017-5.014 10.94-11.143 10.94Z"/><path fill="#034EA2" d="M23.03 25.8H8.359C3.715 25.8 0 22.155 0 17.596v-9.39C0 3.647 3.715 0 8.358 0h14.766c4.643 0 8.358 3.647 8.358 8.205v9.482c-.093 4.467-3.808 8.114-8.451 8.114Z"/><path fill="#fff" d="M23.96 20.604c.974 0 1.764-.776 1.764-1.732 0-.957-.79-1.732-1.764-1.732-.975 0-1.765.775-1.765 1.732 0 .956.79 1.732 1.765 1.732Z"/><path fill="#034EA2" d="M45.225 17.14c-.743-.274-1.393-.73-1.857-1.368-.464-.638-.743-1.368-.743-2.188h3.436c.093.456.186.82.557 1.094.279.273.65.364 1.115.364.464 0 .835-.09 1.114-.364.279-.183.371-.547.371-.912 0-.364-.092-.547-.371-.82-.186-.183-.464-.365-.836-.547-.278-.091-.743-.274-1.393-.456-.836-.274-1.579-.547-2.136-.82-.557-.274-1.021-.639-1.393-1.186-.185-.365-.371-1.003-.371-1.823 0-1.185.464-2.188 1.393-2.826.928-.639 2.043-1.003 3.529-1.003 1.486 0 2.693.364 3.529 1.003.836.638 1.393 1.64 1.486 2.917h-3.53c0-.456-.185-.73-.464-1.003-.278-.273-.65-.365-1.114-.365-.372 0-.743.092-.929.274-.278.182-.371.456-.371.912 0 .455.185.729.65 1.002.371.274 1.021.456 1.857.73.836.273 1.579.547 2.136.82a4.099 4.099 0 0 1 1.393 1.094c.371.456.557 1.094.557 1.915 0 .73-.186 1.459-.557 2.005-.371.639-.929 1.094-1.672 1.46-.742.364-1.578.546-2.6.546a8.464 8.464 0 0 1-2.786-.456ZM54.698 9.39c.372-.82.929-1.458 1.672-1.823.743-.456 1.486-.638 2.414-.638.743 0 1.393.182 1.95.456.558.273 1.022.729 1.3 1.185V7.02h3.251v10.393h-3.25v-1.459a3.256 3.256 0 0 1-1.3 1.186 4.382 4.382 0 0 1-1.95.455c-.836 0-1.672-.182-2.322-.638-.65-.456-1.3-1.094-1.672-1.914-.371-.82-.65-1.732-.65-2.826-.093-1.003.186-2.006.557-2.827Zm6.687 1.003c-.465-.456-1.022-.73-1.672-.73-.65 0-1.207.183-1.672.639-.464.456-.65 1.094-.65 1.915 0 .82.186 1.458.65 1.914.465.456 1.022.73 1.672.73.65 0 1.207-.274 1.672-.73.464-.456.65-1.094.65-1.915 0-.729-.279-1.367-.65-1.823ZM72.9 9.664h-1.765v7.75h-3.25v-7.75h-1.207V7.02h1.207v-.274c0-1.276.371-2.279 1.114-2.917.743-.638 1.858-1.003 3.25-1.003h.558v2.735c-.65 0-1.022.091-1.3.274-.279.182-.372.547-.372 1.094v.09H72.9v2.645ZM84.322 13.037h-7.336c.092.638.278 1.094.65 1.459.371.364.835.547 1.393.547.835 0 1.393-.365 1.671-1.003h3.436c-.185.638-.464 1.276-.928 1.823-.465.547-1.022 1.003-1.765 1.277a6.181 6.181 0 0 1-2.322.456c-1.021 0-1.95-.183-2.785-.639-.836-.456-1.486-1.094-1.858-1.823-.371-.73-.65-1.732-.65-2.826s.186-2.006.65-2.826c.465-.821 1.115-1.46 1.858-1.824.835-.456 1.764-.638 2.785-.638 1.022 0 1.95.182 2.694.638.835.456 1.393 1.003 1.857 1.824.464.82.65 1.732.65 2.735.093.182.093.455 0 .82Zm-3.25-1.823c0-.547-.186-1.003-.558-1.277-.371-.364-.835-.455-1.392-.455-.558 0-1.022.182-1.394.455-.371.274-.65.73-.65 1.368h3.994v-.091ZM101.687 4.376v13.037h-3.25v-5.379h-5.015v5.379h-3.25V4.376h3.25v5.105h5.015V4.376h3.25ZM104.01 9.39c.372-.82.929-1.458 1.672-1.823.743-.456 1.486-.638 2.414-.638a4.38 4.38 0 0 1 1.95.456c.558.273 1.022.729 1.301 1.185V7.02h3.25v10.393h-3.25v-1.459a3.256 3.256 0 0 1-1.301 1.186 4.38 4.38 0 0 1-1.95.455c-.836 0-1.671-.182-2.321-.638a4.238 4.238 0 0 1-1.672-1.914c-.372-.82-.65-1.732-.65-2.826-.093-1.003.093-2.006.557-2.827Zm6.594 1.003c-.465-.456-1.022-.73-1.672-.73-.65 0-1.207.183-1.672.639-.464.456-.65 1.094-.65 1.915 0 .82.186 1.458.65 1.914.465.456 1.022.73 1.672.73.65 0 1.207-.274 1.672-.73.464-.456.65-1.094.65-1.915 0-.729-.186-1.367-.65-1.823ZM121.653 14.495l2.322-7.384h3.436l-3.715 10.393h-3.993l-3.715-10.393h3.436l2.229 7.385ZM138.648 13.037h-7.336c.093.638.278 1.094.65 1.459.371.364.836.547 1.393.547.836 0 1.393-.365 1.671-1.003h3.436c-.185.638-.464 1.276-.928 1.823-.465.547-1.022 1.003-1.765 1.277a6.181 6.181 0 0 1-2.321.456c-1.022 0-1.951-.183-2.786-.639-.836-.456-1.486-1.094-1.858-1.823-.464-.82-.65-1.732-.65-2.826s.186-2.006.65-2.826c.465-.821 1.115-1.46 1.858-1.824.835-.456 1.764-.638 2.786-.638 1.021 0 1.95.182 2.693.638.836.456 1.393 1.003 1.857 1.824.464.82.65 1.732.65 2.735.093.182.093.455 0 .82Zm-3.25-1.823c0-.547-.186-1.003-.557-1.277-.372-.364-.836-.455-1.393-.455-.558 0-1.022.182-1.393.455-.372.274-.65.73-.65 1.368h3.993v-.091ZM149.884 8.114c.743.82 1.115 1.914 1.115 3.282v6.108h-3.25v-5.652c0-.73-.186-1.277-.558-1.641-.371-.365-.835-.547-1.486-.547-.65 0-1.114.182-1.485.547-.372.364-.558.911-.558 1.64v5.653h-3.25V7.02h3.25v1.367c.372-.455.743-.82 1.301-1.094.557-.273 1.207-.364 1.857-.364 1.3 0 2.322.456 3.064 1.185Z"/><path fill="#6E94E8" d="M136.327 22.245v8.57h-1.393V24.98l-2.694 5.835h-1.021l-2.693-5.835v5.835h-1.393v-8.57h1.579l3.064 6.747 3.065-6.747h1.486ZM143.291 22.245v1.185h-3.714v2.553h2.878v1.185h-2.878v3.738h-1.393v-8.57h5.107v-.09ZM150.441 27.168c.372.365.465.82.465 1.368 0 .456-.093.82-.372 1.185-.185.365-.557.638-1.021.82a3.917 3.917 0 0 1-1.486.274h-3.529v-8.57h3.343c.557 0 1.115.091 1.486.274.464.182.743.456.929.82.185.365.371.73.371 1.094 0 .456-.093.912-.371 1.276-.279.365-.65.547-1.115.73.65.091 1.022.273 1.3.73Zm-4.364-1.276h1.764c.465 0 .836-.091 1.115-.274.278-.182.371-.547.371-.911 0-.365-.093-.73-.371-.912-.279-.182-.65-.365-1.115-.365h-1.764v2.462Zm3.064 3.464c.279-.273.372-.547.372-1.003 0-.456-.186-.729-.465-1.003-.278-.273-.65-.364-1.207-.364h-1.857v2.644h1.95c.557 0 .929-.091 1.207-.274Z" opacity=".61"/><path fill="#6E94E8" d="M124.997 30.633H43.182c-.278 0-.557-.274-.557-.547 0-.274.279-.547.557-.547h81.815c.279 0 .557.273.557.547 0 .273-.278.547-.557.547Z"/></svg>